<svg width="100%" height="100%" viewBox="0 0 98 78" fill="none" xmlns="http://www.w3.org/2000/svg">
	<g clip-path="url(#clip0)">
		<path d="M64.5626 44.2377L54.2556 77.7396H20.8985L10.5916 44.2377L37.5771 23.5322L64.5626 44.2377Z" fill="#3F3D56" />
		<path d="M37.9813 54.4962H37.8169V54.3226H37.7849V54.4962H37.6205V54.53H37.7849V54.7036H37.8169V54.53H37.9813V54.4962Z" fill="#F2F2F2" />
		<path d="M36.0871 64.9742H35.9227V64.8006H35.8907V64.9742H35.7263V65.0081H35.8907V65.1816H35.9227V65.0081H36.0871V64.9742Z" fill="#F2F2F2" />
		<path d="M46.911 68.1176H46.7466V67.9441H46.7145V68.1176H46.5502V68.1515H46.7145V68.3251H46.7466V68.1515H46.911V68.1176Z" fill="#F2F2F2" />
		<path d="M45.0168 60.2285C45.2161 60.2285 45.3776 60.0579 45.3776 59.8474C45.3776 59.637 45.2161 59.4664 45.0168 59.4664C44.8175 59.4664 44.656 59.637 44.656 59.8474C44.656 60.0579 44.8175 60.2285 45.0168 60.2285Z" fill="#FF6584" />
		<path d="M16.798 43.9244C17.1467 43.9244 17.4294 43.6259 17.4294 43.2576C17.4294 42.8893 17.1467 42.5908 16.798 42.5908C16.4493 42.5908 16.1666 42.8893 16.1666 43.2576C16.1666 43.6259 16.4493 43.9244 16.798 43.9244Z" fill="#F2F2F2" />
		<path d="M16.8801 64.3956L16.7864 64.3733C17.7175 60.0264 19.8491 56.0691 22.9113 53.0024C25.9735 49.9356 29.8285 47.8975 33.9883 47.146C38.148 46.3944 42.4254 46.9634 46.2788 48.7807C50.1321 50.598 53.3882 53.582 55.6347 57.3548C56.9122 59.4942 57.8364 61.8472 58.3678 64.3135L58.2742 64.3359C56.0632 54.0838 47.5549 46.9235 37.5835 46.9235C27.7428 46.9235 19.0357 54.2716 16.8801 64.3956Z" fill="#F2F2F2" />
		<path d="M49.6699 38.0734H48.7169V77.8271H49.6699V38.0734Z" fill="#F2F2F2" />
		<path d="M58.4651 43.1396C58.5258 57.0405 49.2649 68.3547 49.2649 68.3547C49.2649 68.3547 39.9057 57.1311 39.845 43.2302C39.7844 29.3294 49.0452 18.0152 49.0452 18.0152C49.0452 18.0152 58.4044 29.2388 58.4651 43.1396Z" fill="#6C63FF" />
		<path d="M28.8196 55.6859H28.2897V77.79H28.8196V55.6859Z" fill="#F2F2F2" />
		<path d="M33.7099 58.5028C33.7436 66.2321 28.5943 72.5231 28.5943 72.5231C28.5943 72.5231 23.3903 66.2825 23.3566 58.5532C23.3229 50.824 28.4722 44.533 28.4722 44.533C28.4722 44.533 33.6762 50.7736 33.7099 58.5028Z" fill="#6C63FF" />
		<path opacity="0.1" d="M33.7099 58.5028C33.7436 66.2321 28.5943 72.5231 28.5943 72.5231C28.5943 72.5231 23.3903 66.2825 23.3566 58.5532C23.3229 50.824 28.4722 44.533 28.4722 44.533C28.4722 44.533 33.6762 50.7736 33.7099 58.5028Z" fill="black" />
		<path d="M21.9309 55.6859H21.401V77.79H21.9309V55.6859Z" fill="#F2F2F2" />
		<path d="M26.8212 58.5028C26.855 66.2321 21.7057 72.5231 21.7057 72.5231C21.7057 72.5231 16.5017 66.2825 16.4679 58.5532C16.4342 50.824 21.5835 44.533 21.5835 44.533C21.5835 44.533 26.7875 50.7736 26.8212 58.5028Z" fill="#6C63FF" />
		<path d="M29.0516 32.1114H28.8873V31.9378H28.8552V32.1114H28.6908V32.1453H28.8552V32.3188H28.8873V32.1453H29.0516V32.1114Z" fill="#F2F2F2" />
		<path d="M27.1574 42.5894H26.9931V42.4159H26.961V42.5894H26.7966V42.6233H26.961V42.7969H26.9931V42.6233H27.1574V42.5894Z" fill="#F2F2F2" />
		<path d="M37.9813 45.7329H37.8169V45.5593H37.7849V45.7329H37.6205V45.7667H37.7849V45.9403H37.8169V45.7667H37.9813V45.7329Z" fill="#F2F2F2" />
		<path d="M36.0871 37.8436C36.2864 37.8436 36.4479 37.673 36.4479 37.4626C36.4479 37.2521 36.2864 37.0815 36.0871 37.0815C35.8878 37.0815 35.7263 37.2521 35.7263 37.4626C35.7263 37.673 35.8878 37.8436 36.0871 37.8436Z" fill="#FF6584" />
		<path d="M54.9688 36.6484C53.9814 35.0984 53.5527 33.2259 53.7604 31.3707C53.9681 29.5154 54.7985 27.8002 56.101 26.536C57.4035 25.2719 59.0918 24.5425 60.8599 24.4802C62.6279 24.4179 64.3585 25.0267 65.738 26.1964C67.1174 27.366 68.0542 29.0189 68.3786 30.8555C68.703 32.692 68.3934 34.5904 67.506 36.2066C66.6186 37.8227 65.2122 39.0495 63.5418 39.6645C61.8714 40.2795 60.0475 40.242 58.4011 39.5587C58.2943 39.9611 58.0948 40.3292 57.8203 40.6301C57.5458 40.931 57.2049 41.1554 56.8282 41.2831C56.4515 41.4108 56.0506 41.4378 55.6616 41.3618C55.2725 41.2857 54.9074 41.109 54.5988 40.8474C54.2903 40.5858 54.048 40.2475 53.8937 39.8628C53.7393 39.478 53.6777 39.0589 53.7144 38.6428C53.7511 38.2268 53.8848 37.8268 54.1038 37.4788C54.3227 37.1307 54.6199 36.8454 54.9688 36.6484Z" fill="#3F3D56" />
		<path d="M62.6747 35.274C62.8801 35.1488 62.3393 33.7533 61.4667 32.1572C60.594 30.561 59.7201 29.3686 59.5147 29.4939C59.3092 29.6192 59.8501 31.0146 60.7227 32.6108C61.5953 34.2069 62.4693 35.3993 62.6747 35.274Z" fill="#6C63FF" />
		<path d="M61.4667 32.6108C62.3393 31.0146 62.8801 29.6192 62.6747 29.4939C62.4692 29.3687 61.5953 30.561 60.7227 32.1572C59.8501 33.7533 59.3092 35.1488 59.5147 35.274C59.7201 35.3993 60.594 34.2069 61.4667 32.6108Z" fill="#6C63FF" />
		<path d="M7.68798 77.7397C9.83003 77.7397 11.5665 75.9059 11.5665 73.6438C11.5665 71.3817 9.83003 69.5479 7.68798 69.5479C5.54592 69.5479 3.80945 71.3817 3.80945 73.6438C3.80945 75.9059 5.54592 77.7397 7.68798 77.7397Z" fill="#3F3D56" />
		<path d="M7.68799 71.1671C9.23226 71.1671 10.4841 69.8451 10.4841 68.2142C10.4841 66.5834 9.23226 65.2614 7.68799 65.2614C6.14372 65.2614 4.89185 66.5834 4.89185 68.2142C4.89185 69.8451 6.14372 71.1671 7.68799 71.1671Z" fill="#3F3D56" />
		<path d="M7.68785 65.7376C8.78379 65.7376 9.67222 64.7994 9.67222 63.642C9.67222 62.4847 8.78379 61.5464 7.68785 61.5464C6.59192 61.5464 5.70349 62.4847 5.70349 63.642C5.70349 64.7994 6.59192 65.7376 7.68785 65.7376Z" fill="#3F3D56" />
		<path d="M0 77.9372C5.06009 77.2402 9.92526 76.6477 14.5955 76.1597L12.799 72.9788C13.4233 72.7953 16.1272 74.6365 16.1272 74.6365L13.8437 65.4377C16.9645 65.8076 18.4156 75.1898 18.4156 75.1898L21.9545 72.065L20.2113 75.6043C34.5025 74.286 46.8339 73.8796 57.1996 73.9813L55.662 71.2588C56.2863 71.0752 58.9902 72.9164 58.9902 72.9164L56.7067 63.7176C59.8275 64.0875 61.2786 73.4698 61.2786 73.4698L64.8175 70.3449L62.9712 74.0937C71.6586 74.3492 78.7372 74.9566 84.198 75.6186C82.6645 71.3876 77.3034 67.3178 77.3034 67.3178C81.4267 68.4547 83.5712 70.304 84.6807 72.0177C84.8449 66.8177 84.4049 57.1681 80.2283 46.4416C80.2283 46.4416 88.5415 63.0022 87.2868 74.0383L87.1272 75.9987C94.3673 77.0019 98 78 98 78L0 77.9372Z" fill="#3F3D56" />
		<path d="M83.0972 66.9741L82.6181 72.7928L80.4621 73.2987L79.983 71.7808C79.983 71.7808 80.8215 67.6066 80.8215 66.8477L83.0972 66.9741Z" fill="#A0616A" />
		<path d="M77.1084 62.9264C77.1084 62.9264 78.0666 65.4562 78.426 65.7092C78.7853 65.9622 77.348 69.251 77.348 69.251L75.192 68.8715C75.192 68.8715 75.9107 66.2152 75.3118 64.6973L77.1084 62.9264Z" fill="#A0616A" />
		<path d="M77.7672 64.3811C77.7672 64.3811 78.6655 64.6973 79.0249 66.0887C79.3842 67.4801 79.3842 67.6066 79.3842 67.6066L78.7853 68.998H78.426C78.426 68.998 77.8271 71.1484 77.9469 71.9073C78.0667 72.6663 77.1084 75.5756 75.4316 75.4491C73.7547 75.3226 74.114 73.1722 74.114 73.1722L74.9524 68.745C74.9524 68.745 74.9524 67.6066 75.192 67.6066C75.4316 67.6066 77.348 67.9861 77.348 67.9861V68.3656C77.348 68.3656 78.7254 66.405 77.7672 64.3811Z" fill="#2F2E41" />
		<path d="M80.8216 72.1603V71.4014C80.8216 71.4014 83.3369 71.7809 83.3369 72.1603V73.0458C83.3369 73.0458 85.4929 77.8524 83.0973 77.8524C80.7018 77.8524 80.2227 76.8405 80.2227 76.8405V75.4491C80.2227 75.4491 79.0249 74.8167 79.0249 74.4372C79.0249 74.0577 80.1937 70.7056 80.1937 70.7056C80.1937 70.7056 80.2227 72.6663 80.8216 72.1603Z" fill="#2F2E41" />
		<path d="M83.6963 9.54699C85.8131 9.54699 87.5291 7.73476 87.5291 5.49927C87.5291 3.26377 85.8131 1.45154 83.6963 1.45154C81.5794 1.45154 79.8634 3.26377 79.8634 5.49927C79.8634 7.73476 81.5794 9.54699 83.6963 9.54699Z" fill="#A0616A" />
		<path d="M85.1935 8.59834C85.1935 8.59834 84.7144 11.0017 84.7144 11.2547C84.7144 11.5076 82.4386 12.6461 82.4386 12.6461L80.4024 12.2666L79.6837 9.98975C79.6837 9.98975 80.8815 8.09239 80.8815 7.33344L85.1935 8.59834Z" fill="#A0616A" />
		<path d="M84.8728 10.2658C84.8728 10.2658 83.6363 12.393 81.8397 11.7606C81.34 11.6004 80.9011 11.2777 80.5855 10.8384C80.2698 10.3991 80.0937 9.86579 80.0822 9.31451L74.174 11.5076L75.2519 20.7415L74.2937 31.4932L75.0124 32.8847H85.5528C85.5528 32.8847 85.9121 30.9873 86.0319 30.9873C86.1517 30.9873 86.3912 30.6078 86.2714 30.4813C86.1517 30.3548 85.9121 30.2283 86.0319 29.8489C86.1517 29.4694 86.2714 25.2952 86.2714 25.2952L89.8647 14.2904L84.8728 10.2658Z" fill="#D0CDE1" />
		<path d="M89.4455 34.3394L87.2895 37.3752C87.2895 37.3752 86.9302 34.2129 86.451 34.0864L87.6488 33.2009L89.4455 34.3394Z" fill="#A0616A" />
		<path d="M65.4901 31.936C65.4901 31.936 62.2561 34.0863 62.6154 35.4777C62.9747 36.8691 66.6878 33.0744 66.6878 32.9479C66.6878 32.8214 65.4901 31.936 65.4901 31.936Z" fill="#A0616A" />
		<path d="M85.6127 31.936H85.8523L86.2116 33.7069C86.2116 33.7069 88.128 35.4778 87.1698 38.2606L85.2534 51.5422L85.0138 66.9741L82.8578 67.6066L80.4623 67.1006L79.8634 46.4825C79.8634 46.4825 79.025 44.5851 79.3843 43.9527C79.7436 43.3202 79.2645 43.4467 79.2645 43.4467L76.7492 50.7832C76.7492 50.7832 77.5876 53.1866 76.7492 53.9455C76.7492 53.9455 76.869 54.325 76.7492 54.4515C76.6294 54.578 76.0305 55.0839 76.2701 55.3369C76.5096 55.5899 76.6294 55.3369 76.6294 55.7164C76.6294 56.0959 77.8272 59.2581 77.3481 63.3059L75.791 65.8357L74.3536 64.9503L71.7185 57.1078C71.7185 57.1078 72.3174 55.9694 71.7185 55.7164C71.1197 55.4634 70.9999 55.2104 71.2394 54.8309C71.479 54.4515 71.479 53.1866 71.1197 52.5541C70.7603 51.9216 71.1197 50.9097 71.1197 50.9097L72.4372 38.1341C72.4372 38.1341 71.8383 34.7188 73.8745 32.9479L74.2339 31.5565C74.2339 31.5565 77.2283 33.8334 85.6127 31.936Z" fill="#2F2E41" />
		<path d="M87.02 2.23817C87.02 2.23817 85.8031 -0.546299 83.4706 0.0962708C81.1382 0.73884 79.8199 1.70269 79.7185 2.66655C79.617 3.6304 79.7692 5.07618 79.7692 5.07618C79.7692 5.07618 80.0227 3.09493 81.6452 3.52331C83.2678 3.95169 85.8031 3.6304 85.8031 3.6304L86.2087 7.48582C86.2087 7.48582 86.665 6.7897 87.1721 7.21808C87.6791 7.64646 88.6425 3.09493 87.02 2.23817Z" fill="#2F2E41" />
		<path d="M88.068 14.2905H89.8647C89.8647 14.2905 91.4218 15.6819 91.302 18.3382L92.1405 25.8012C92.1405 25.8012 92.1405 29.4694 90.7031 32.1258L89.146 35.2881C89.146 35.2881 88.5471 33.5172 86.7505 33.7702L87.7087 31.1138V30.4814C87.7087 30.4814 88.068 29.9754 88.068 29.8489C88.068 29.7224 87.5889 29.7224 87.9483 29.4694C88.3076 29.2165 88.6669 26.6866 88.6669 26.6866C88.6669 26.6866 88.5471 26.1807 88.4274 26.0542C88.3076 25.9277 88.5471 25.5482 88.5471 25.5482L88.3076 25.1687L86.7505 18.9707L88.068 14.2905Z" fill="#D0CDE1" />
		<path d="M76.2101 11.1282L74.1739 11.5076C74.1739 11.5076 72.9761 12.7726 72.497 14.2905L71.5388 18.8442L69.9817 22.1329C69.9817 22.1329 68.185 24.0303 66.8675 28.331L64.951 32.1258L66.9873 33.3907C66.9873 33.3907 72.6168 26.4336 73.3355 24.0303L76.4497 17.7057L76.2101 11.1282Z" fill="#D0CDE1" />
	</g>
	<defs>
		<clipPath id="clip0">
			<rect width="98" height="78" fill="white" />
		</clipPath>
	</defs>
</svg>
