<svg width="100%" height="100%" viewBox="0 0 182 168" fill="none" xmlns="http://www.w3.org/2000/svg">
  <path d="M180.403 64.2466C180.338 64.2466 180.275 64.2261 180.221 64.1878L91.9163 0.949568C91.6476 0.758019 91.3283 0.655651 91.0013 0.656224C90.6743 0.656798 90.3553 0.760284 90.0872 0.952774L2.41852 64.1871C2.34918 64.2371 2.26336 64.2568 2.17993 64.2417C2.09651 64.2267 2.02231 64.1781 1.97368 64.1068C1.92504 64.0355 1.90594 63.9473 1.92058 63.8615C1.93522 63.7757 1.9824 63.6994 2.05175 63.6494L89.7205 0.415064C90.0959 0.145617 90.5425 0.000776713 91.0002 3.11509e-06C91.458 -0.000770483 91.905 0.142559 92.2813 0.410736L180.586 63.6488C180.642 63.6887 180.684 63.746 180.706 63.8121C180.728 63.8783 180.729 63.95 180.708 64.0167C180.688 64.0834 180.647 64.1416 180.592 64.183C180.538 64.2243 180.471 64.2466 180.403 64.2466L180.403 64.2466Z" fill="#6C5FF9" />
  <path d="M7.4281 66.4882L91.0881 2.73141L175.383 71.0248L95.3986 119.782L51.974 109.604L7.4281 66.4882Z" fill="#EBEBEB" />
  <path d="M55.6396 149.898H14.3095C14.0557 149.898 13.8044 149.847 13.5698 149.747C13.3352 149.648 13.1221 149.502 12.9425 149.317C12.763 149.133 12.6205 148.914 12.5233 148.673C12.4261 148.432 12.3761 148.173 12.3761 147.912C12.3761 147.651 12.4261 147.393 12.5233 147.152C12.6205 146.911 12.763 146.692 12.9425 146.507C13.1221 146.323 13.3352 146.177 13.5698 146.077C13.8044 145.977 14.0557 145.926 14.3095 145.927H55.6396C55.8933 145.926 56.1447 145.977 56.3792 146.077C56.6138 146.177 56.827 146.323 57.0065 146.507C57.1861 146.692 57.3285 146.911 57.4257 147.152C57.5229 147.393 57.573 147.651 57.573 147.912C57.573 148.173 57.5229 148.432 57.4257 148.673C57.3285 148.914 57.1861 149.133 57.0065 149.317C56.827 149.502 56.6138 149.648 56.3792 149.747C56.1447 149.847 55.8933 149.898 55.6396 149.898Z" fill="#6C63FF" />
  <path d="M29.1378 141.361H14.3095C14.0557 141.361 13.8044 141.31 13.5698 141.211C13.3352 141.111 13.1221 140.965 12.9425 140.78C12.763 140.596 12.6205 140.377 12.5233 140.136C12.4261 139.895 12.3761 139.636 12.3761 139.376C12.3761 139.115 12.4261 138.856 12.5233 138.615C12.6205 138.374 12.763 138.155 12.9425 137.971C13.1221 137.786 13.3352 137.64 13.5698 137.54C13.8044 137.441 14.0557 137.39 14.3095 137.39H29.1378C29.3916 137.39 29.6429 137.441 29.8775 137.54C30.1121 137.64 30.3252 137.786 30.5048 137.971C30.6843 138.155 30.8268 138.374 30.924 138.615C31.0212 138.856 31.0712 139.115 31.0712 139.376C31.0712 139.636 31.0212 139.895 30.924 140.136C30.8268 140.377 30.6843 140.596 30.5048 140.78C30.3252 140.965 30.1121 141.111 29.8775 141.211C29.6429 141.31 29.3916 141.361 29.1378 141.361Z" fill="#6C63FF" />
  <path d="M92.2645 102C91.9503 102 91.6391 101.938 91.3483 101.815L39.7527 79.801V10.8923C39.7534 10.283 39.9891 9.69881 40.4081 9.26795C40.8271 8.83708 41.3952 8.5947 41.9878 8.59399H140.97C141.563 8.5947 142.131 8.83708 142.55 9.26795C142.969 9.69881 143.205 10.283 143.205 10.8923V79.8491L143.108 79.8917L93.2083 101.805C92.9095 101.934 92.5886 102 92.2645 102Z" fill="#E3E3E3" />
  <path d="M92.2644 102.164C91.9295 102.164 91.5976 102.098 91.2875 101.967L39.593 79.9107V10.8923C39.5937 10.2395 39.8463 9.61356 40.2952 9.15191C40.7442 8.69026 41.3529 8.43058 41.9878 8.42984H140.97C141.605 8.43058 142.214 8.69026 142.663 9.15191C143.112 9.61356 143.364 10.2395 143.365 10.8923V79.9575L93.271 101.956C92.9523 102.093 92.6101 102.164 92.2644 102.164ZM40.2316 79.4721L91.531 101.36C92.0095 101.56 92.5454 101.557 93.0215 101.351L142.726 79.524V10.8923C142.726 10.4136 142.541 9.95459 142.211 9.61605C141.882 9.27751 141.436 9.08707 140.97 9.08651H41.9878C41.5222 9.08707 41.0758 9.27751 40.7466 9.61605C40.4174 9.95459 40.2322 10.4136 40.2316 10.8923L40.2316 79.4721Z" fill="#6C5FF9" />
  <path d="M179.765 63.59H179.701L143.046 79.6849L92.8935 101.706C92.6975 101.791 92.4872 101.835 92.2746 101.836C92.062 101.837 91.8513 101.795 91.6545 101.713L39.9123 79.6389L2.35638 63.6162L2.29901 63.59H2.23509C1.64251 63.5906 1.07438 63.833 0.655366 64.2639C0.236348 64.6948 0.000657515 65.279 0 65.8883V165.702C0.000658359 166.311 0.236349 166.895 0.655366 167.326C1.07438 167.757 1.64251 167.999 2.23509 168H179.765C180.357 167.999 180.926 167.757 181.345 167.326C181.764 166.895 181.999 166.311 182 165.702V65.8883C181.999 65.279 181.764 64.6948 181.345 64.2639C180.926 63.833 180.357 63.5906 179.765 63.59ZM181.361 165.702C181.361 166.137 181.193 166.554 180.894 166.862C180.594 167.17 180.188 167.343 179.765 167.343H2.23509C1.81172 167.343 1.40575 167.17 1.10639 166.862C0.807023 166.554 0.638766 166.137 0.638596 165.702V65.8883C0.639175 65.4638 0.799319 65.0559 1.08554 64.7499C1.37177 64.444 1.76192 64.2637 2.17444 64.2466L39.9123 80.3481L91.4088 102.32C91.9662 102.553 92.5909 102.55 93.1458 102.31L143.046 80.3974L179.829 64.2466C180.241 64.2649 180.63 64.4458 180.915 64.7515C181.201 65.0573 181.36 65.4644 181.361 65.8883V165.702Z" fill="#6C61E4" />
  <path d="M91.7488 82.46C89.844 82.4636 87.9897 81.8303 86.4657 80.6554L86.3712 80.5825L66.4754 64.9185C65.554 64.1925 64.7807 63.287 64.1996 62.2537C63.6185 61.2204 63.241 60.0796 63.0886 58.8963C62.9363 57.7129 63.0121 56.5104 63.3118 55.3572C63.6114 54.204 64.129 53.1228 64.835 52.1753C65.541 51.2278 66.4216 50.4326 67.4264 49.8351C68.4313 49.2375 69.5408 48.8493 70.6915 48.6927C71.8423 48.5361 73.0117 48.614 74.1332 48.9222C75.2546 49.2303 76.3061 49.7625 77.2275 50.4885L90.1145 60.6497L120.568 19.8093C121.275 18.8621 122.156 18.0672 123.161 17.47C124.166 16.8728 125.275 16.485 126.426 16.3288C127.577 16.1726 128.746 16.251 129.868 16.5596C130.989 16.8681 132.04 17.4008 132.961 18.1271L132.772 18.3915L132.966 18.131C134.825 19.5994 136.04 21.7659 136.347 24.155C136.654 26.5441 136.026 28.9607 134.602 30.8747L98.7811 78.9127C97.9526 80.0197 96.8873 80.9155 95.6677 81.5307C94.4482 82.1459 93.1072 82.4638 91.7488 82.46Z" fill="#6C63FF" />
</svg>
