<svg width="100%" height="100%" viewBox="0 0 438 297" fill="none" xmlns="http://www.w3.org/2000/svg">
<g clip-path="url(#clip0)">
<path d="M87.2686 297C135.466 297 174.537 294.108 174.537 290.54C174.537 286.973 135.466 284.081 87.2686 284.081C39.0715 284.081 0 286.973 0 290.54C0 294.108 39.0715 297 87.2686 297Z" fill="#E6E6E6"/>
<path d="M66.7065 65.899C81.8939 59.6033 100.81 63.5922 119.284 66.3606C119.456 63.008 121.539 58.9278 119.357 56.5888C116.705 53.7472 116.949 50.7615 118.545 47.7586C122.625 40.0797 116.779 31.9089 110.876 25.1149C109.545 23.5871 107.864 22.3866 105.968 21.6111C104.072 20.8355 102.015 20.5067 99.9643 20.6514L89.0295 21.4127C86.3686 21.5979 83.8292 22.5707 81.7511 24.2009C79.6731 25.8311 78.1554 28.041 77.4012 30.5348C74.7902 33.9957 73.3927 37.447 74.2726 40.8803C70.3617 43.4851 69.7046 46.6293 71.462 50.1738C72.9522 52.4056 72.9364 54.578 71.3942 56.6903C69.369 59.3834 67.8178 62.3862 66.8043 65.5756L66.7065 65.899Z" fill="#2F2E41"/>
<path d="M427.621 256.752H118.084C115.331 256.752 112.691 255.686 110.745 253.789C108.798 251.892 107.705 249.319 107.705 246.636C219.912 233.927 330.01 233.927 438 246.636C438 249.319 436.907 251.892 434.96 253.789C433.014 255.686 430.374 256.752 427.621 256.752Z" fill="#2F2E41"/>
<path d="M438 247.231L107.705 246.636L145.985 183.862L146.168 183.564V45.2157C146.168 43.5365 146.507 41.8736 147.167 40.3222C147.826 38.7707 148.792 37.361 150.011 36.1736C151.229 34.9862 152.675 34.0443 154.267 33.4018C155.859 32.7592 157.565 32.4286 159.288 32.4287H384.585C386.308 32.4286 388.014 32.7592 389.606 33.4018C391.198 34.0443 392.644 34.9862 393.863 36.1736C395.081 37.361 396.048 38.7707 396.707 40.3222C397.366 41.8736 397.705 43.5365 397.705 45.2157V184.516L438 247.231Z" fill="#3F3D56"/>
<path d="M158.989 41.354C157.856 41.3552 156.77 41.7945 155.969 42.5753C155.167 43.3562 154.717 44.4149 154.715 45.5192V171.664C154.717 172.768 155.167 173.827 155.969 174.607C156.77 175.388 157.856 175.828 158.989 175.829H386.716C387.849 175.827 388.935 175.388 389.736 174.607C390.537 173.827 390.988 172.768 390.989 171.664V45.5192C390.988 44.4149 390.537 43.3562 389.736 42.5754C388.935 41.7945 387.849 41.3553 386.716 41.354H158.989Z" fill="white"/>
<path d="M159.943 192.49C159.593 192.49 159.251 192.588 158.956 192.772C158.661 192.956 158.426 193.219 158.279 193.529L146.484 218.519C146.356 218.791 146.3 219.09 146.321 219.389C146.342 219.688 146.44 219.976 146.606 220.228C146.771 220.481 146.999 220.688 147.269 220.832C147.538 220.975 147.841 221.051 148.148 221.051H396.196C396.508 221.051 396.815 220.973 397.088 220.825C397.361 220.676 397.59 220.463 397.754 220.204C397.918 219.945 398.012 219.65 398.026 219.346C398.04 219.042 397.974 218.739 397.834 218.467L385.013 193.476C384.862 193.179 384.628 192.929 384.339 192.755C384.049 192.58 383.715 192.489 383.375 192.49H159.943Z" fill="#2F2E41"/>
<path d="M271.937 39.2715C273.454 39.2715 274.684 38.0726 274.684 36.5939C274.684 35.1151 273.454 33.9163 271.937 33.9163C270.419 33.9163 269.189 35.1151 269.189 36.5939C269.189 38.0726 270.419 39.2715 271.937 39.2715Z" fill="white"/>
<path d="M247.555 225.811C247.153 225.811 246.762 225.941 246.442 226.179C246.122 226.418 245.892 226.753 245.787 227.131L242.828 237.842C242.755 238.106 242.746 238.384 242.8 238.653C242.855 238.921 242.972 239.174 243.143 239.392C243.314 239.609 243.534 239.785 243.786 239.907C244.038 240.028 244.316 240.091 244.597 240.091H300.865C301.157 240.091 301.445 240.023 301.704 239.893C301.964 239.762 302.188 239.573 302.357 239.341C302.526 239.109 302.636 238.842 302.678 238.56C302.719 238.278 302.691 237.991 302.595 237.722L298.791 227.012C298.667 226.661 298.433 226.357 298.123 226.142C297.813 225.926 297.441 225.811 297.061 225.811H247.555Z" fill="#2F2E41"/>
<path d="M397.705 181.481V183.861H145.985L146.174 183.564V181.481H397.705Z" fill="#2F2E41"/>
<path d="M390.684 83.303C414.287 83.303 433.421 64.655 433.421 41.6515C433.421 18.648 414.287 0 390.684 0C367.081 0 347.947 18.648 347.947 41.6515C347.947 64.655 367.081 83.303 390.684 83.303Z" fill="#6C63FF"/>
<path d="M408.39 59.7996H372.979C372.331 59.7989 371.711 59.548 371.253 59.1017C370.795 58.6555 370.538 58.0505 370.537 57.4195V36.5937C370.538 35.9627 370.795 35.3577 371.253 34.9115C371.711 34.4653 372.332 34.2143 372.979 34.2136H408.39C409.037 34.2143 409.658 34.4653 410.116 34.9115C410.573 35.3577 410.831 35.9627 410.832 36.5937V57.4194C410.831 58.0505 410.573 58.6555 410.116 59.1017C409.658 59.548 409.037 59.7989 408.39 59.7996ZM372.979 36.5937V57.4195H408.391L408.39 36.5937L372.979 36.5937Z" fill="white"/>
<path d="M401.674 36.5939H379.695V27.0735C379.695 20.1779 384.316 15.1731 390.684 15.1731C397.052 15.1731 401.674 20.1779 401.674 27.0735L401.674 36.5939ZM382.137 34.2138H399.231V27.0735C399.231 21.4682 395.717 17.5532 390.684 17.5532C385.651 17.5532 382.137 21.4682 382.137 27.0735L382.137 34.2138Z" fill="white"/>
<path d="M390.684 48.7917C392.033 48.7917 393.126 47.7261 393.126 46.4116C393.126 45.0971 392.033 44.0315 390.684 44.0315C389.336 44.0315 388.242 45.0971 388.242 46.4116C388.242 47.7261 389.336 48.7917 390.684 48.7917Z" fill="white"/>
<path d="M360.85 133.042H184.855C183.991 133.041 183.162 132.706 182.551 132.11C181.94 131.515 181.597 130.708 181.596 129.865V87.3173C181.597 86.4751 181.94 85.6678 182.551 85.0723C183.162 84.4768 183.991 84.1419 184.855 84.1409H360.85C361.714 84.1419 362.543 84.4768 363.154 85.0723C363.765 85.6678 364.108 86.4751 364.109 87.3173V129.865C364.108 130.708 363.765 131.515 363.154 132.11C362.543 132.706 361.714 133.041 360.85 133.042ZM184.855 85.4114C184.336 85.412 183.839 85.613 183.473 85.9703C183.106 86.3276 182.9 86.812 182.899 87.3173V129.865C182.9 130.371 183.106 130.855 183.473 131.212C183.839 131.57 184.336 131.771 184.855 131.771H360.85C361.369 131.771 361.866 131.57 362.232 131.212C362.599 130.855 362.805 130.371 362.806 129.865V87.3173C362.805 86.812 362.599 86.3275 362.232 85.9702C361.866 85.6129 361.369 85.412 360.85 85.4114L184.855 85.4114Z" fill="#E6E6E6"/>
<path d="M212.201 119.898C219.533 119.898 225.477 114.105 225.477 106.959C225.477 99.8127 219.533 94.0198 212.201 94.0198C204.869 94.0198 198.925 99.8127 198.925 106.959C198.925 114.105 204.869 119.898 212.201 119.898Z" fill="#E6E6E6"/>
<path d="M242.862 98.3328C242.572 98.3323 242.283 98.3878 242.015 98.4959C241.746 98.6041 241.501 98.7629 241.296 98.9632C241.09 99.1635 240.926 99.4014 240.815 99.6632C240.704 99.9251 240.646 100.206 240.646 100.489C240.646 100.773 240.704 101.053 240.815 101.315C240.926 101.577 241.09 101.815 241.296 102.015C241.501 102.216 241.746 102.374 242.015 102.483C242.283 102.591 242.572 102.646 242.862 102.646H347.175C347.762 102.646 348.324 102.419 348.739 102.014C349.154 101.61 349.387 101.061 349.387 100.489C349.387 99.9173 349.154 99.3688 348.739 98.9644C348.324 98.56 347.762 98.3328 347.175 98.3328H242.862Z" fill="#E6E6E6"/>
<path d="M242.862 111.272C242.276 111.272 241.713 111.499 241.298 111.903C240.883 112.308 240.65 112.856 240.65 113.428C240.65 114 240.883 114.549 241.298 114.953C241.713 115.357 242.276 115.585 242.862 115.585H287.748C288.335 115.585 288.898 115.357 289.313 114.953C289.728 114.549 289.961 114 289.961 113.428C289.961 112.856 289.728 112.308 289.313 111.903C288.898 111.499 288.335 111.272 287.748 111.272H242.862Z" fill="#E6E6E6"/>
<path d="M145.552 112.144L113.018 129.001L112.606 114.954C123.225 113.226 133.328 110.218 142.669 105.321L146.072 97.1279C146.443 96.2351 147.045 95.4517 147.82 94.8545C148.596 94.2572 149.517 93.8668 150.494 93.7214C151.471 93.576 152.47 93.6807 153.393 94.0252C154.315 94.3697 155.13 94.9421 155.758 95.6864C156.675 96.7752 157.134 98.1634 157.041 99.5696C156.948 100.976 156.31 102.295 155.256 103.26L145.552 112.144Z" fill="#FFB8B8"/>
<path d="M66.058 209.472C65.8207 208.624 65.7703 207.736 65.9102 206.868C66.05 205.999 66.377 205.169 66.8696 204.432L74.0164 193.743C75.7068 191.214 78.3005 189.388 81.2944 188.618C84.2883 187.848 87.4689 188.19 90.2191 189.577C87.2155 194.559 87.6342 198.931 91.2564 202.729C85.6333 205.405 80.4363 208.858 75.8264 212.981C74.9848 213.54 74.0183 213.896 73.0074 214.017C71.9965 214.138 70.9704 214.023 70.0147 213.679C69.059 213.336 68.2013 212.775 67.5131 212.043C66.8248 211.312 66.326 210.43 66.058 209.472Z" fill="#2F2E41"/>
<path d="M147.034 195.496C145.952 197.252 144.426 198.709 142.6 199.725C140.775 200.741 138.713 201.283 136.611 201.298L89.132 201.649L87.0729 190.009L108.076 183.989L90.3675 170.744L109.723 148.668L144.879 180.603C146.934 182.47 148.269 184.967 148.661 187.678C149.053 190.388 148.479 193.148 147.034 195.496Z" fill="#2F2E41"/>
<path d="M81.7191 275.098H70.5999C60.6164 208.403 50.4542 141.522 80.4837 116.559L115.901 122.178L111.37 151.478L91.6029 173.553L81.7191 275.098Z" fill="#2F2E41"/>
<path d="M91.4935 290.207C90.6231 290.438 89.7122 290.487 88.8209 290.351C87.9296 290.215 87.0779 289.896 86.322 289.416L74.2488 287.834C71.6544 286.187 69.7805 283.659 68.9904 280.741C68.2004 277.824 68.5506 274.724 69.9731 272.043C75.086 274.971 79.5711 274.562 83.4686 271.032C86.2225 276.451 90.7599 276.12 95.0933 280.686C95.6671 281.506 96.0315 282.448 96.1561 283.433C96.2807 284.419 96.162 285.419 95.8098 286.35C95.4576 287.282 94.8822 288.118 94.1314 288.788C93.3806 289.459 92.4762 289.945 91.4935 290.207Z" fill="#2F2E41"/>
<path d="M108.076 72.0077L87.4846 67.1913C90.9045 60.3689 91.1861 52.7775 89.5437 44.7148L103.546 44.3135C103.984 54.3396 105.312 63.7066 108.076 72.0077Z" fill="#FFB8B8"/>
<path d="M113.735 134.263C98.7454 144.218 88.1542 134.604 80.0718 119.77C81.1949 110.693 79.3764 99.831 76.0085 88.0283C74.5106 82.8224 75.0698 77.2585 77.5757 72.4348C80.0815 67.6112 84.3519 63.8785 89.5438 61.9736L107.252 69.1982C122.289 81.1434 125.248 94.0825 119.607 107.729L113.735 134.263Z" fill="#6C63FF"/>
<path d="M70.5998 82.0419L54.1269 90.4705L83.3664 107.328L87.4348 117.109C87.7064 117.761 87.8387 118.461 87.8236 119.166C87.8086 119.87 87.6465 120.564 87.3473 121.205C87.0482 121.846 86.6181 122.421 86.0834 122.895C85.5487 123.369 84.9205 123.732 84.2373 123.962C83.4605 124.223 82.6324 124.305 81.8176 124.202C81.0028 124.099 80.2235 123.814 79.5408 123.368C78.8581 122.923 78.2905 122.329 77.8824 121.634C77.4743 120.939 77.2369 120.162 77.1886 119.362L76.7772 112.546L39.6141 100.593C38.362 100.191 37.2204 99.5154 36.2756 98.619C35.3308 97.7226 34.6078 96.6285 34.1611 95.4194C33.5101 93.657 33.477 91.7339 34.0669 89.9512C34.6568 88.1685 35.8365 86.6266 37.4214 85.567L67.3052 65.5859L70.5998 82.0419Z" fill="#FFB8B8"/>
<path d="M87.0728 83.6471C80.2026 80.7128 73.9553 83.9004 66.0698 86.4567L64.8344 65.1843C72.6643 61.1171 80.1296 60.0205 87.0728 63.1775L87.0728 83.6471Z" fill="#6C63FF"/>
<path d="M95.2912 54.8505C102.552 54.8505 108.438 49.114 108.438 42.0377C108.438 34.9613 102.552 29.2249 95.2912 29.2249C88.0305 29.2249 82.1445 34.9613 82.1445 42.0377C82.1445 49.114 88.0305 54.8505 95.2912 54.8505Z" fill="#FFB8B8"/>
<path d="M111.019 40.4208C98.0025 41.6633 88.0842 39.5886 81.7452 33.6812V28.9238H109.914L111.019 40.4208Z" fill="#2F2E41"/>
</g>
<defs>
<clipPath id="clip0">
<rect width="438" height="297" fill="white"/>
</clipPath>
</defs>
</svg>
