<svg width="100%" height="100%" viewBox="0 0 606 400" fill="none" xmlns="http://www.w3.org/2000/svg">
  <g clip-path="url(#clip0)">
    <path opacity="0.1" d="M342.771 54.4577C303.928 54.5074 266.539 43.9794 230.776 32.2838C195.014 20.5882 159.527 7.49155 121.406 1.94186C96.8886 -1.62544 69.0095 -1.29753 49.8448 11.6551C31.3972 24.1158 26.0552 44.7396 23.4777 63.7933C21.5394 78.1271 20.6456 93.1714 27.9051 106.283C32.9458 115.385 41.5719 122.887 47.6518 131.562C68.8743 161.74 56.1117 200.29 35.4868 231.168C25.8162 245.656 14.4878 259.543 7.17632 274.86C-0.135156 290.178 -3.13354 307.547 4.32344 322.666C11.7129 337.651 28.404 348.527 46.3163 355.954C82.6918 371.068 125.043 374.308 166.257 375.555C257.486 378.322 348.893 372.678 440.055 367.034C473.791 364.947 507.677 362.846 540.716 356.799C559.06 353.445 577.949 348.467 590.956 337.556C607.465 323.705 610.843 301.089 598.829 284.832C578.682 257.565 525.558 252.423 511.112 222.921C503.146 206.679 510.015 188.053 520.133 172.397C541.834 138.806 579.186 108.718 579.815 71.1466C580.246 45.3457 560.822 20.1758 531.81 8.96219C501.4 -2.78308 459.937 0.237705 438.631 22.1284C416.723 44.6799 377.068 54.423 342.771 54.4577Z" fill="white" />
    <path d="M515.768 320.64C515.768 320.64 509.381 316.61 503.052 319.477C503.052 319.477 505.001 323.064 513.014 322.727L515.768 320.64Z" fill="#6C63FF" />
    <path d="M516.579 320.854C516.579 320.854 518.522 327.929 513.648 332.743C513.648 332.743 510.717 329.826 513.648 322.682L516.579 320.854Z" fill="#6C63FF" />
    <path d="M524.519 314.062C524.519 314.062 524.046 308.045 509.834 310.042C509.834 310.042 509.766 313.923 514.755 315.761C519.743 317.599 522.03 316.049 524.519 314.062Z" fill="#6C63FF" />
    <path d="M525.413 314.022C525.413 314.022 531.42 315.865 526.062 328.609C526.062 328.609 522.097 327.765 521.385 322.692C520.673 317.619 522.783 315.87 525.413 314.022Z" fill="#6C63FF" />
    <path d="M533.436 305.486C533.436 305.486 534.252 295.584 519.728 296.598C519.728 296.598 518.688 305.541 530.874 307.866L533.436 305.486Z" fill="#6C63FF" />
    <path d="M543.034 294.307C543.034 294.307 541.044 283.084 526.525 286.428C526.525 286.428 526.473 296.131 540.664 296.98L543.034 294.307Z" fill="#6C63FF" />
    <path d="M550.049 282.751C550.049 282.751 546.713 271.821 532.329 275.09C532.329 275.09 535.754 284.922 549.093 284.768L550.049 282.751Z" fill="#6C63FF" />
    <path d="M556.711 271.463C556.711 271.463 553.453 260.12 539.563 263.513C539.563 263.513 544.198 274.29 555.791 273.381L556.711 271.463Z" fill="#6C63FF" />
    <path d="M561.003 260.741C561.003 260.741 558.499 246.869 545.549 249.94C545.549 249.94 549.311 262.56 560.053 262.763L561.003 260.741Z" fill="#6C63FF" />
    <path d="M565.031 247.788C565.031 247.788 562.022 233.807 548.922 237.852C548.922 237.852 554.056 251.068 564.101 249.701L565.031 247.788Z" fill="#6C63FF" />
    <path d="M567.504 235.735C567.504 235.735 562.729 221.749 552.601 222.127C552.601 222.127 557.48 236.898 566.657 238.522L567.504 235.735Z" fill="#6C63FF" />
    <path d="M569.105 223.97C569.105 223.97 563.908 207.137 555.667 208.434C555.667 208.434 559.263 221.302 568.814 226.593L569.105 223.97Z" fill="#6C63FF" />
    <path d="M570.009 209.934C570.009 209.934 565.135 195.909 557.018 195.347C557.018 195.347 560.333 209.149 569.848 213.581L570.009 209.934Z" fill="#6C63FF" />
    <path d="M570.991 196.838C570.991 196.838 564.917 182.797 559.559 182.479C559.559 182.479 562.199 196.306 570.472 199.143L570.991 196.838Z" fill="#6C63FF" />
    <path d="M571.662 184.655C571.662 184.655 567.925 169.407 562.557 168.14C562.557 168.14 563.29 180.616 571.121 185.798L571.662 184.655Z" fill="#6C63FF" />
    <path d="M573.688 168.697C573.688 168.697 569.76 156.539 565.41 154.686C565.41 154.686 566.268 169.02 572.685 171.668L573.688 168.697Z" fill="#6C63FF" />
    <path d="M575.367 158.263L576.156 136.829C576.156 136.829 568.024 152.987 574.779 162.024L575.367 158.263Z" fill="#6C63FF" />
    <path d="M581.644 136.944C581.644 136.944 587.5 121.293 588.919 120.419C588.919 120.419 577.435 130.574 578.557 143.636L581.644 136.944Z" fill="#6C63FF" />
    <path d="M533.831 305.412C533.831 305.412 544.13 304.125 543.824 318.041C543.824 318.041 534.517 319.492 531.477 307.98L533.831 305.412Z" fill="#6C63FF" />
    <path d="M543.522 293.93C543.522 293.93 555.422 293.895 554.435 308.139C554.435 308.139 544.442 309.849 541.148 296.623L543.522 293.93Z" fill="#6C63FF" />
    <path d="M550.164 283.67C550.164 283.67 560.967 278.826 567.878 291.331C567.878 291.331 557.901 295.366 549.208 285.692L550.164 283.67Z" fill="#6C63FF" />
    <path d="M556.95 271.567C556.95 271.567 568.013 266.415 574.509 278.627C574.509 278.627 562.983 282.423 556.036 273.5L556.95 271.567Z" fill="#6C63FF" />
    <path d="M560.863 261.044C560.863 261.044 571.511 251.321 580.007 261.153C580.007 261.153 569.131 269.157 560.375 263.21L560.863 261.044Z" fill="#6C63FF" />
    <path d="M564.428 247.456C564.428 247.456 575.138 237.519 583.567 247.913C583.567 247.913 571.547 256.076 564.043 249.542L564.428 247.456Z" fill="#6C63FF" />
    <path d="M566.429 235.338C566.429 235.338 574.681 222.917 584.398 225.689C584.398 225.689 575.834 238.84 566.522 238.254L566.429 235.338Z" fill="#6C63FF" />
    <path d="M568.861 223.891C568.861 223.891 577.175 208.25 585.042 210.973C585.042 210.973 579.046 222.996 568.647 226.529L568.861 223.891Z" fill="#6C63FF" />
    <path d="M569.437 209.119C569.437 209.119 577.986 196.808 585.993 198.313C585.993 198.313 579.004 210.799 568.606 212.682L569.437 209.119Z" fill="#6C63FF" />
    <path d="M570.103 196.564C570.103 196.564 576.728 182.747 582.112 182.653C582.112 182.653 578.931 196.371 570.55 198.909L570.103 196.564Z" fill="#6C63FF" />
    <path d="M571.402 184.357C571.402 184.357 578.765 170.366 584.299 170.336C584.299 170.336 580.532 182.3 571.646 185.584L571.402 184.357Z" fill="#6C63FF" />
    <path d="M572.509 169.571C572.509 169.571 578.017 157.995 582.579 156.683C582.579 156.683 579.825 170.793 573.117 172.642L572.509 169.571Z" fill="#6C63FF" />
    <path d="M576.021 157.841L588.332 139.91C588.332 139.91 585.178 157.597 574.223 161.274L576.021 157.841Z" fill="#6C63FF" />
    <path d="M584.471 138.389C584.471 138.389 598.777 128.95 599.296 127.424C599.296 127.424 592.021 140.645 578.51 142.98L584.471 138.389Z" fill="#6C63FF" />
    <path d="M585.328 134.142C585.328 134.142 601.754 119.043 605.948 119.058C605.948 119.058 592.401 119.649 584.933 133.337L585.328 134.142Z" fill="#6C63FF" />
    <path d="M572.67 171.812L573.267 171.886C576.354 148.788 580.854 135.12 585.936 133.446L585.739 132.899C580.35 134.688 575.819 148.147 572.67 171.812Z" fill="#444053" />
    <path d="M568.128 227.05L569.032 227.12C569.224 224.964 569.37 222.758 569.469 220.557C570.331 201.438 571.667 183.88 573.423 170.719L572.904 170.098C571.142 183.289 569.427 201.374 568.564 220.522C568.466 222.708 568.32 224.904 568.128 227.05Z" fill="#444053" />
    <path d="M498.911 331.66C499.066 331.595 514.983 324.798 531.503 308.592C541.182 299.099 549.224 288.199 555.329 276.297C562.968 261.427 567.624 243.153 569.183 225.401L568.242 225.823C564.735 265.67 545.762 292.896 530.677 307.727C514.318 323.79 498.578 330.517 498.422 330.582L498.911 331.66Z" fill="#444053" />
    <path d="M540.124 42.3456H40.8029C39.6232 42.3456 38.4918 42.7937 37.6576 43.5912C36.8234 44.3888 36.3547 45.4706 36.3547 46.5985V58.9897H544.572V46.5985C544.572 45.4706 544.104 44.3888 543.269 43.5912C542.435 42.7937 541.304 42.3456 540.124 42.3456Z" fill="#3F3D56" />
    <path d="M36.3547 58.9897V337.836C36.3547 340.11 37.2997 342.291 38.9817 343.899C40.6638 345.507 42.9451 346.411 45.3239 346.411H535.603C537.982 346.411 540.263 345.507 541.945 343.899C543.627 342.291 544.572 340.11 544.572 337.836V58.9897H36.3547Z" fill="white" />
    <path opacity="0.8" d="M44.404 52.5307C45.552 52.5307 46.4826 51.641 46.4826 50.5434C46.4826 49.4458 45.552 48.556 44.404 48.556C43.2561 48.556 42.3254 49.4458 42.3254 50.5434C42.3254 51.641 43.2561 52.5307 44.404 52.5307Z" fill="#FA5959" />
    <path opacity="0.8" d="M50.1202 52.5307C51.2682 52.5307 52.1988 51.641 52.1988 50.5434C52.1988 49.4458 51.2682 48.556 50.1202 48.556C48.9722 48.556 48.0416 49.4458 48.0416 50.5434C48.0416 51.641 48.9722 52.5307 50.1202 52.5307Z" fill="#FED253" />
    <path opacity="0.8" d="M55.8364 52.5307C56.9844 52.5307 57.915 51.641 57.915 50.5434C57.915 49.4458 56.9844 48.556 55.8364 48.556C54.6884 48.556 53.7578 49.4458 53.7578 50.5434C53.7578 51.641 54.6884 52.5307 55.8364 52.5307Z" fill="#8CCF4D" />
    <path opacity="0.05" d="M492.041 105.484H83.5961V277.201H492.041V105.484Z" fill="black" />
    <path d="M488.923 106.786H86.714V274.717H488.923V106.786Z" fill="#3F3D56" />
    <path d="M196.36 150.006C188.446 150.006 180.71 152.249 174.13 156.453C167.55 160.657 162.421 166.631 159.393 173.622C156.364 180.612 155.572 188.305 157.116 195.726C158.66 203.147 162.471 209.963 168.067 215.314C173.663 220.664 180.792 224.307 188.554 225.784C196.316 227.26 204.361 226.502 211.672 223.607C218.984 220.711 225.233 215.808 229.63 209.516C234.026 203.225 236.373 195.829 236.373 188.262C236.373 183.238 235.338 178.263 233.327 173.622C231.316 168.98 228.369 164.763 224.654 161.211C220.938 157.658 216.527 154.84 211.672 152.918C206.818 150.995 201.615 150.006 196.36 150.006ZM203.536 189.181V207.296H189.392V189.181C187.434 187.765 185.992 185.796 185.267 183.553C184.543 181.31 184.574 178.907 185.356 176.682C186.137 174.457 187.63 172.522 189.623 171.152C191.616 169.782 194.009 169.045 196.464 169.045C198.919 169.045 201.312 169.782 203.305 171.152C205.298 172.522 206.791 174.457 207.573 176.682C208.354 178.907 208.385 181.31 207.661 183.553C206.937 185.796 205.494 187.765 203.536 189.181Z" fill="#6C63FF" />
    <path opacity="0.05" d="M196.36 150.006C188.446 150.006 180.71 152.249 174.13 156.453C167.55 160.657 162.421 166.631 159.393 173.622C156.364 180.612 155.572 188.305 157.116 195.726C158.66 203.147 162.471 209.963 168.067 215.314C173.663 220.664 180.792 224.307 188.554 225.784C196.316 227.26 204.361 226.502 211.672 223.607C218.984 220.711 225.233 215.808 229.63 209.516C234.026 203.225 236.373 195.829 236.373 188.262C236.373 183.238 235.338 178.263 233.327 173.622C231.316 168.98 228.369 164.763 224.654 161.211C220.938 157.658 216.527 154.84 211.672 152.918C206.818 150.995 201.615 150.006 196.36 150.006ZM203.536 189.181V207.296H189.392V189.181C187.434 187.765 185.992 185.796 185.267 183.553C184.543 181.31 184.574 178.907 185.356 176.682C186.137 174.457 187.63 172.522 189.623 171.152C191.616 169.782 194.009 169.045 196.464 169.045C198.919 169.045 201.312 169.782 203.305 171.152C205.298 172.522 206.791 174.457 207.573 176.682C208.354 178.907 208.385 181.31 207.661 183.553C206.937 185.796 205.494 187.765 203.536 189.181Z" fill="black" />
    <path d="M196.569 139.394C186.394 139.394 176.447 142.279 167.987 147.683C159.527 153.088 152.933 160.77 149.039 169.758C145.146 178.746 144.127 188.636 146.112 198.177C148.097 207.718 152.997 216.483 160.191 223.361C167.386 230.24 176.553 234.925 186.532 236.823C196.512 238.721 206.856 237.747 216.256 234.024C225.656 230.301 233.691 223.997 239.344 215.908C244.997 207.819 248.014 198.309 248.014 188.581C248.014 175.536 242.594 163.025 232.946 153.8C223.298 144.576 210.213 139.394 196.569 139.394ZM205.793 189.763V213.05H187.605V189.763C185.087 187.942 183.231 185.41 182.3 182.526C181.368 179.641 181.408 176.55 182.412 173.688C183.417 170.827 185.337 168.339 187.9 166.576C190.464 164.814 193.541 163.866 196.699 163.866C199.856 163.866 202.934 164.814 205.497 166.576C208.06 168.339 209.98 170.827 210.985 173.688C211.99 176.55 212.029 179.641 211.097 182.526C210.166 185.41 208.31 187.942 205.793 189.763Z" fill="#6C63FF" />
    <path d="M435.399 181.808H269.111V198.701H435.399V181.808Z" fill="white" />
    <path d="M435.399 212.612H399.543V229.505H435.399V212.612Z" fill="#6C63FF" />
    <path d="M285.48 190.001H282.471L285.147 187.447C285.195 187.4 285.222 187.337 285.222 187.271C285.222 187.205 285.195 187.142 285.147 187.095C285.123 187.071 285.095 187.053 285.063 187.04C285.031 187.028 284.997 187.021 284.963 187.021C284.929 187.021 284.895 187.028 284.863 187.04C284.831 187.053 284.803 187.071 284.778 187.095L282.102 189.653V186.772C282.102 186.706 282.075 186.643 282.026 186.596C281.977 186.549 281.911 186.523 281.842 186.523C281.774 186.525 281.709 186.551 281.66 186.597C281.612 186.644 281.584 186.706 281.583 186.772V189.653L278.912 187.08C278.887 187.056 278.859 187.038 278.827 187.025C278.795 187.013 278.761 187.006 278.727 187.006C278.693 187.006 278.659 187.013 278.627 187.025C278.596 187.038 278.567 187.056 278.543 187.08C278.495 187.127 278.468 187.19 278.468 187.256C278.468 187.322 278.495 187.385 278.543 187.432L281.219 189.986H278.205C278.136 189.987 278.071 190.014 278.023 190.06C277.974 190.107 277.946 190.169 277.945 190.235C277.945 190.301 277.972 190.364 278.021 190.41C278.07 190.457 278.136 190.483 278.205 190.483H281.219L278.543 193.042C278.495 193.089 278.468 193.152 278.468 193.218C278.468 193.284 278.495 193.347 278.543 193.395C278.593 193.439 278.659 193.464 278.727 193.464C278.796 193.464 278.862 193.439 278.912 193.395L281.583 190.836V193.713C281.583 193.778 281.61 193.842 281.659 193.888C281.707 193.935 281.774 193.961 281.842 193.961C281.911 193.961 281.977 193.935 282.026 193.888C282.075 193.842 282.102 193.778 282.102 193.713V190.836L284.778 193.395C284.828 193.439 284.894 193.464 284.963 193.464C285.031 193.464 285.097 193.439 285.147 193.395C285.195 193.347 285.222 193.284 285.222 193.218C285.222 193.152 285.195 193.089 285.147 193.042L282.471 190.483H285.48C285.549 190.483 285.615 190.457 285.664 190.41C285.712 190.364 285.74 190.301 285.74 190.235C285.736 190.171 285.707 190.112 285.658 190.069C285.61 190.025 285.546 190.001 285.48 190.001Z" fill="#6C63FF" />
    <path d="M296.393 190.001H293.384L296.06 187.447C296.108 187.4 296.135 187.337 296.135 187.271C296.135 187.205 296.108 187.142 296.06 187.095C296.036 187.071 296.007 187.053 295.975 187.04C295.944 187.028 295.91 187.021 295.875 187.021C295.841 187.021 295.807 187.028 295.776 187.04C295.744 187.053 295.715 187.071 295.691 187.095L293.015 189.653V186.772C293.015 186.706 292.987 186.643 292.939 186.596C292.89 186.549 292.824 186.523 292.755 186.523C292.687 186.525 292.621 186.551 292.573 186.597C292.524 186.644 292.497 186.706 292.495 186.772V189.653L289.824 187.08C289.8 187.056 289.771 187.038 289.74 187.025C289.708 187.013 289.674 187.006 289.64 187.006C289.605 187.006 289.571 187.013 289.54 187.025C289.508 187.038 289.479 187.056 289.455 187.08C289.407 187.127 289.38 187.19 289.38 187.256C289.38 187.322 289.407 187.385 289.455 187.432L292.131 189.986H289.117C289.049 189.987 288.984 190.014 288.935 190.06C288.887 190.107 288.859 190.169 288.858 190.235C288.858 190.301 288.885 190.364 288.934 190.41C288.982 190.457 289.049 190.483 289.117 190.483H292.131L289.455 193.042C289.407 193.089 289.38 193.152 289.38 193.218C289.38 193.284 289.407 193.347 289.455 193.395C289.505 193.439 289.571 193.464 289.64 193.464C289.708 193.464 289.774 193.439 289.824 193.395L292.495 190.836V193.713C292.495 193.778 292.523 193.842 292.571 193.888C292.62 193.935 292.686 193.961 292.755 193.961C292.824 193.961 292.89 193.935 292.939 193.888C292.987 193.842 293.015 193.778 293.015 193.713V190.836L295.691 193.395C295.741 193.439 295.807 193.464 295.875 193.464C295.944 193.464 296.01 193.439 296.06 193.395C296.108 193.347 296.135 193.284 296.135 193.218C296.135 193.152 296.108 193.089 296.06 193.042L293.384 190.483H296.393C296.461 190.483 296.528 190.457 296.576 190.41C296.625 190.364 296.652 190.301 296.652 190.235C296.648 190.171 296.619 190.112 296.571 190.069C296.523 190.025 296.459 190.001 296.393 190.001Z" fill="#6C63FF" />
    <path d="M307.305 190.001H304.297L306.973 187.447C307.021 187.4 307.047 187.337 307.047 187.271C307.047 187.205 307.021 187.142 306.973 187.095C306.949 187.071 306.92 187.053 306.888 187.04C306.857 187.028 306.823 187.021 306.788 187.021C306.754 187.021 306.72 187.028 306.688 187.04C306.657 187.053 306.628 187.071 306.604 187.095L303.928 189.653V186.772C303.928 186.706 303.9 186.643 303.851 186.596C303.803 186.549 303.737 186.523 303.668 186.523C303.599 186.525 303.534 186.551 303.485 186.597C303.437 186.644 303.409 186.706 303.408 186.772V189.653L300.737 187.08C300.713 187.056 300.684 187.038 300.652 187.025C300.621 187.013 300.587 187.006 300.552 187.006C300.518 187.006 300.484 187.013 300.453 187.025C300.421 187.038 300.392 187.056 300.368 187.08C300.32 187.127 300.293 187.19 300.293 187.256C300.293 187.322 300.32 187.385 300.368 187.432L303.044 189.986H300.03C299.962 189.987 299.896 190.014 299.848 190.06C299.799 190.107 299.772 190.169 299.77 190.235C299.77 190.301 299.798 190.364 299.846 190.41C299.895 190.457 299.961 190.483 300.03 190.483H303.044L300.368 193.042C300.32 193.089 300.293 193.152 300.293 193.218C300.293 193.284 300.32 193.347 300.368 193.395C300.418 193.439 300.484 193.464 300.552 193.464C300.621 193.464 300.687 193.439 300.737 193.395L303.408 190.836V193.713C303.408 193.778 303.435 193.842 303.484 193.888C303.533 193.935 303.599 193.961 303.668 193.961C303.737 193.961 303.803 193.935 303.851 193.888C303.9 193.842 303.928 193.778 303.928 193.713V190.836L306.604 193.395C306.654 193.439 306.72 193.464 306.788 193.464C306.857 193.464 306.923 193.439 306.973 193.395C307.021 193.347 307.047 193.284 307.047 193.218C307.047 193.152 307.021 193.089 306.973 193.042L304.297 190.483H307.305C307.374 190.483 307.44 190.457 307.489 190.41C307.538 190.364 307.565 190.301 307.565 190.235C307.561 190.171 307.532 190.112 307.484 190.069C307.435 190.025 307.372 190.001 307.305 190.001Z" fill="#6C63FF" />
    <path d="M318.218 190.001H315.209L317.885 187.447C317.933 187.4 317.96 187.337 317.96 187.271C317.96 187.205 317.933 187.142 317.885 187.095C317.861 187.071 317.832 187.053 317.801 187.04C317.769 187.028 317.735 187.021 317.701 187.021C317.667 187.021 317.633 187.028 317.601 187.04C317.569 187.053 317.541 187.071 317.516 187.095L314.84 189.653V186.772C314.84 186.706 314.813 186.643 314.764 186.596C314.715 186.549 314.649 186.523 314.58 186.523C314.512 186.525 314.447 186.551 314.398 186.597C314.35 186.644 314.322 186.706 314.321 186.772V189.653L311.65 187.08C311.625 187.056 311.597 187.038 311.565 187.025C311.533 187.013 311.499 187.006 311.465 187.006C311.431 187.006 311.397 187.013 311.365 187.025C311.333 187.038 311.305 187.056 311.281 187.08C311.233 187.127 311.206 187.19 311.206 187.256C311.206 187.322 311.233 187.385 311.281 187.432L313.957 189.986H310.943C310.874 189.987 310.809 190.014 310.761 190.06C310.712 190.107 310.684 190.169 310.683 190.235C310.683 190.301 310.71 190.364 310.759 190.41C310.808 190.457 310.874 190.483 310.943 190.483H313.957L311.281 193.042C311.233 193.089 311.206 193.152 311.206 193.218C311.206 193.284 311.233 193.347 311.281 193.395C311.331 193.439 311.397 193.464 311.465 193.464C311.534 193.464 311.599 193.439 311.65 193.395L314.321 190.836V193.713C314.321 193.778 314.348 193.842 314.397 193.888C314.445 193.935 314.511 193.961 314.58 193.961C314.649 193.961 314.715 193.935 314.764 193.888C314.813 193.842 314.84 193.778 314.84 193.713V190.836L317.516 193.395C317.566 193.439 317.632 193.464 317.701 193.464C317.769 193.464 317.835 193.439 317.885 193.395C317.933 193.347 317.96 193.284 317.96 193.218C317.96 193.152 317.933 193.089 317.885 193.042L315.209 190.483H318.218C318.287 190.483 318.353 190.457 318.402 190.41C318.45 190.364 318.478 190.301 318.478 190.235C318.474 190.171 318.445 190.112 318.396 190.069C318.348 190.025 318.284 190.001 318.218 190.001Z" fill="#6C63FF" />
    <path d="M329.131 190.001H326.122L328.798 187.447C328.846 187.4 328.873 187.337 328.873 187.271C328.873 187.205 328.846 187.142 328.798 187.095C328.774 187.071 328.745 187.053 328.713 187.04C328.682 187.028 328.648 187.021 328.614 187.021C328.579 187.021 328.545 187.028 328.514 187.04C328.482 187.053 328.453 187.071 328.429 187.095L325.753 189.653V186.772C325.753 186.706 325.726 186.643 325.677 186.596C325.628 186.549 325.562 186.523 325.493 186.523C325.425 186.525 325.359 186.551 325.311 186.597C325.262 186.644 325.235 186.706 325.233 186.772V189.653L322.562 187.08C322.538 187.056 322.509 187.038 322.478 187.025C322.446 187.013 322.412 187.006 322.378 187.006C322.343 187.006 322.309 187.013 322.278 187.025C322.246 187.038 322.217 187.056 322.193 187.08C322.145 187.127 322.119 187.19 322.119 187.256C322.119 187.322 322.145 187.385 322.193 187.432L324.869 189.986H321.856C321.787 189.987 321.722 190.014 321.673 190.06C321.625 190.107 321.597 190.169 321.596 190.235C321.596 190.301 321.623 190.364 321.672 190.41C321.721 190.457 321.787 190.483 321.856 190.483H324.869L322.193 193.042C322.145 193.089 322.119 193.152 322.119 193.218C322.119 193.284 322.145 193.347 322.193 193.395C322.243 193.439 322.309 193.464 322.378 193.464C322.446 193.464 322.512 193.439 322.562 193.395L325.233 190.836V193.713C325.233 193.778 325.261 193.842 325.309 193.888C325.358 193.935 325.424 193.961 325.493 193.961C325.562 193.961 325.628 193.935 325.677 193.888C325.726 193.842 325.753 193.778 325.753 193.713V190.836L328.429 193.395C328.479 193.439 328.545 193.464 328.614 193.464C328.682 193.464 328.748 193.439 328.798 193.395C328.846 193.347 328.873 193.284 328.873 193.218C328.873 193.152 328.846 193.089 328.798 193.042L326.122 190.483H329.131C329.2 190.483 329.266 190.457 329.314 190.41C329.363 190.364 329.39 190.301 329.39 190.235C329.386 190.171 329.357 190.112 329.309 190.069C329.261 190.025 329.197 190.001 329.131 190.001Z" fill="#6C63FF" />
    <path d="M340.043 190.001H337.034L339.711 187.447C339.759 187.4 339.785 187.337 339.785 187.271C339.785 187.205 339.759 187.142 339.711 187.095C339.686 187.071 339.658 187.053 339.626 187.04C339.594 187.028 339.56 187.021 339.526 187.021C339.492 187.021 339.458 187.028 339.426 187.04C339.395 187.053 339.366 187.071 339.342 187.095L336.665 189.653V186.772C336.665 186.706 336.638 186.643 336.589 186.596C336.541 186.549 336.475 186.523 336.406 186.523C336.337 186.525 336.272 186.551 336.223 186.597C336.175 186.644 336.147 186.706 336.146 186.772V189.653L333.475 187.08C333.451 187.056 333.422 187.038 333.39 187.025C333.359 187.013 333.325 187.006 333.29 187.006C333.256 187.006 333.222 187.013 333.19 187.025C333.159 187.038 333.13 187.056 333.106 187.08C333.058 187.127 333.031 187.19 333.031 187.256C333.031 187.322 333.058 187.385 333.106 187.432L335.782 189.986H332.768C332.7 189.987 332.634 190.014 332.586 190.06C332.537 190.107 332.51 190.169 332.508 190.235C332.508 190.301 332.536 190.364 332.584 190.41C332.633 190.457 332.699 190.483 332.768 190.483H335.782L333.106 193.042C333.058 193.089 333.031 193.152 333.031 193.218C333.031 193.284 333.058 193.347 333.106 193.395C333.156 193.439 333.222 193.464 333.29 193.464C333.359 193.464 333.425 193.439 333.475 193.395L336.146 190.836V193.713C336.146 193.778 336.173 193.842 336.222 193.888C336.271 193.935 336.337 193.961 336.406 193.961C336.475 193.961 336.541 193.935 336.589 193.888C336.638 193.842 336.665 193.778 336.665 193.713V190.836L339.342 193.395C339.392 193.439 339.458 193.464 339.526 193.464C339.595 193.464 339.661 193.439 339.711 193.395C339.759 193.347 339.785 193.284 339.785 193.218C339.785 193.152 339.759 193.089 339.711 193.042L337.034 190.483H340.043C340.112 190.483 340.178 190.457 340.227 190.41C340.276 190.364 340.303 190.301 340.303 190.235C340.299 190.171 340.27 190.112 340.222 190.069C340.173 190.025 340.11 190.001 340.043 190.001Z" fill="#6C63FF" />
    <path d="M350.956 190.001H347.947L350.623 187.447C350.671 187.4 350.698 187.337 350.698 187.271C350.698 187.205 350.671 187.142 350.623 187.095C350.599 187.071 350.57 187.053 350.539 187.04C350.507 187.028 350.473 187.021 350.439 187.021C350.405 187.021 350.371 187.028 350.339 187.04C350.307 187.053 350.279 187.071 350.254 187.095L347.578 189.653V186.772C347.578 186.706 347.551 186.643 347.502 186.596C347.453 186.549 347.387 186.523 347.318 186.523C347.25 186.525 347.185 186.551 347.136 186.597C347.088 186.644 347.06 186.706 347.059 186.772V189.653L344.388 187.08C344.363 187.056 344.335 187.038 344.303 187.025C344.271 187.013 344.237 187.006 344.203 187.006C344.169 187.006 344.135 187.013 344.103 187.025C344.071 187.038 344.043 187.056 344.019 187.08C343.971 187.127 343.944 187.19 343.944 187.256C343.944 187.322 343.971 187.385 344.019 187.432L346.695 189.986H343.681C343.612 189.987 343.547 190.014 343.499 190.06C343.45 190.107 343.422 190.169 343.421 190.235C343.421 190.301 343.448 190.364 343.497 190.41C343.546 190.457 343.612 190.483 343.681 190.483H346.695L344.019 193.042C343.971 193.089 343.944 193.152 343.944 193.218C343.944 193.284 343.971 193.347 344.019 193.395C344.069 193.439 344.135 193.464 344.203 193.464C344.272 193.464 344.338 193.439 344.388 193.395L347.059 190.836V193.713C347.059 193.778 347.086 193.842 347.135 193.888C347.183 193.935 347.249 193.961 347.318 193.961C347.387 193.961 347.453 193.935 347.502 193.888C347.551 193.842 347.578 193.778 347.578 193.713V190.836L350.254 193.395C350.304 193.439 350.37 193.464 350.439 193.464C350.507 193.464 350.573 193.439 350.623 193.395C350.671 193.347 350.698 193.284 350.698 193.218C350.698 193.152 350.671 193.089 350.623 193.042L347.947 190.483H350.956C351.025 190.483 351.091 190.457 351.14 190.41C351.188 190.364 351.216 190.301 351.216 190.235C351.212 190.171 351.183 190.112 351.134 190.069C351.086 190.025 351.022 190.001 350.956 190.001Z" fill="#6C63FF" />
    <path d="M361.869 190.001H358.86L361.536 187.447C361.584 187.4 361.611 187.337 361.611 187.271C361.611 187.205 361.584 187.142 361.536 187.095C361.512 187.071 361.483 187.053 361.451 187.04C361.42 187.028 361.386 187.021 361.351 187.021C361.317 187.021 361.283 187.028 361.252 187.04C361.22 187.053 361.191 187.071 361.167 187.095L358.491 189.653V186.772C358.491 186.706 358.463 186.643 358.415 186.596C358.366 186.549 358.3 186.523 358.231 186.523C358.162 186.525 358.097 186.551 358.049 186.597C358 186.644 357.972 186.706 357.971 186.772V189.653L355.3 187.08C355.276 187.056 355.247 187.038 355.216 187.025C355.184 187.013 355.15 187.006 355.116 187.006C355.081 187.006 355.047 187.013 355.016 187.025C354.984 187.038 354.955 187.056 354.931 187.08C354.883 187.127 354.856 187.19 354.856 187.256C354.856 187.322 354.883 187.385 354.931 187.432L357.607 189.986H354.593C354.525 189.987 354.46 190.014 354.411 190.06C354.363 190.107 354.335 190.169 354.334 190.235C354.334 190.301 354.361 190.364 354.41 190.41C354.458 190.457 354.525 190.483 354.593 190.483H357.607L354.931 193.042C354.883 193.089 354.856 193.152 354.856 193.218C354.856 193.284 354.883 193.347 354.931 193.395C354.981 193.439 355.047 193.464 355.116 193.464C355.184 193.464 355.25 193.439 355.3 193.395L357.971 190.836V193.713C357.971 193.778 357.999 193.842 358.047 193.888C358.096 193.935 358.162 193.961 358.231 193.961C358.3 193.961 358.366 193.935 358.415 193.888C358.463 193.842 358.491 193.778 358.491 193.713V190.836L361.167 193.395C361.217 193.439 361.283 193.464 361.351 193.464C361.42 193.464 361.486 193.439 361.536 193.395C361.584 193.347 361.611 193.284 361.611 193.218C361.611 193.152 361.584 193.089 361.536 193.042L358.86 190.483H361.869C361.937 190.483 362.004 190.457 362.052 190.41C362.101 190.364 362.128 190.301 362.128 190.235C362.124 190.171 362.095 190.112 362.047 190.069C361.999 190.025 361.935 190.001 361.869 190.001Z" fill="#6C63FF" />
    <path d="M372.781 190.001H369.772L372.449 187.447C372.497 187.4 372.523 187.337 372.523 187.271C372.523 187.205 372.497 187.142 372.449 187.095C372.424 187.071 372.396 187.053 372.364 187.04C372.332 187.028 372.298 187.021 372.264 187.021C372.23 187.021 372.196 187.028 372.164 187.04C372.133 187.053 372.104 187.071 372.08 187.095L369.403 189.653V186.772C369.403 186.706 369.376 186.643 369.327 186.596C369.279 186.549 369.213 186.523 369.144 186.523C369.075 186.525 369.01 186.551 368.961 186.597C368.913 186.644 368.885 186.706 368.884 186.772V189.653L366.213 187.08C366.189 187.056 366.16 187.038 366.128 187.025C366.097 187.013 366.063 187.006 366.028 187.006C365.994 187.006 365.96 187.013 365.928 187.025C365.897 187.038 365.868 187.056 365.844 187.08C365.796 187.127 365.769 187.19 365.769 187.256C365.769 187.322 365.796 187.385 365.844 187.432L368.52 189.986H365.506C365.438 189.987 365.372 190.014 365.324 190.06C365.275 190.107 365.248 190.169 365.246 190.235C365.246 190.301 365.274 190.364 365.322 190.41C365.371 190.457 365.437 190.483 365.506 190.483H368.52L365.844 193.042C365.796 193.089 365.769 193.152 365.769 193.218C365.769 193.284 365.796 193.347 365.844 193.395C365.894 193.439 365.96 193.464 366.028 193.464C366.097 193.464 366.163 193.439 366.213 193.395L368.884 190.836V193.713C368.884 193.778 368.911 193.842 368.96 193.888C369.009 193.935 369.075 193.961 369.144 193.961C369.213 193.961 369.279 193.935 369.327 193.888C369.376 193.842 369.403 193.778 369.403 193.713V190.836L372.08 193.395C372.13 193.439 372.196 193.464 372.264 193.464C372.333 193.464 372.399 193.439 372.449 193.395C372.497 193.347 372.523 193.284 372.523 193.218C372.523 193.152 372.497 193.089 372.449 193.042L369.772 190.483H372.781C372.85 190.483 372.916 190.457 372.965 190.41C373.014 190.364 373.041 190.301 373.041 190.235C373.037 190.171 373.008 190.112 372.96 190.069C372.911 190.025 372.847 190.001 372.781 190.001Z" fill="#6C63FF" />
    <path d="M383.694 190.001H380.685L383.361 187.447C383.409 187.4 383.436 187.337 383.436 187.271C383.436 187.205 383.409 187.142 383.361 187.095C383.337 187.071 383.308 187.053 383.277 187.04C383.245 187.028 383.211 187.021 383.177 187.021C383.142 187.021 383.109 187.028 383.077 187.04C383.045 187.053 383.016 187.071 382.992 187.095L380.316 189.653V186.772C380.316 186.706 380.289 186.643 380.24 186.596C380.191 186.549 380.125 186.523 380.056 186.523C379.988 186.525 379.922 186.551 379.874 186.597C379.826 186.644 379.798 186.706 379.796 186.772V189.653L377.125 187.08C377.101 187.056 377.073 187.038 377.041 187.025C377.009 187.013 376.975 187.006 376.941 187.006C376.907 187.006 376.873 187.013 376.841 187.025C376.809 187.038 376.781 187.056 376.757 187.08C376.709 187.127 376.682 187.19 376.682 187.256C376.682 187.322 376.709 187.385 376.757 187.432L379.433 189.986H376.419C376.35 189.987 376.285 190.014 376.236 190.06C376.188 190.107 376.16 190.169 376.159 190.235C376.159 190.301 376.186 190.364 376.235 190.41C376.284 190.457 376.35 190.483 376.419 190.483H379.433L376.757 193.042C376.709 193.089 376.682 193.152 376.682 193.218C376.682 193.284 376.709 193.347 376.757 193.395C376.807 193.439 376.872 193.464 376.941 193.464C377.009 193.464 377.075 193.439 377.125 193.395L379.796 190.836V193.713C379.796 193.778 379.824 193.842 379.873 193.888C379.921 193.935 379.987 193.961 380.056 193.961C380.125 193.961 380.191 193.935 380.24 193.888C380.289 193.842 380.316 193.778 380.316 193.713V190.836L382.992 193.395C383.042 193.439 383.108 193.464 383.177 193.464C383.245 193.464 383.311 193.439 383.361 193.395C383.409 193.347 383.436 193.284 383.436 193.218C383.436 193.152 383.409 193.089 383.361 193.042L380.685 190.483H383.694C383.763 190.483 383.829 190.457 383.878 190.41C383.926 190.364 383.954 190.301 383.954 190.235C383.95 190.171 383.921 190.112 383.872 190.069C383.824 190.025 383.76 190.001 383.694 190.001Z" fill="#6C63FF" />
    <path d="M394.606 190.001H391.598L394.274 187.447C394.322 187.4 394.349 187.337 394.349 187.271C394.349 187.205 394.322 187.142 394.274 187.095C394.25 187.071 394.221 187.053 394.189 187.04C394.158 187.028 394.124 187.021 394.089 187.021C394.055 187.021 394.021 187.028 393.989 187.04C393.958 187.053 393.929 187.071 393.905 187.095L391.229 189.653V186.772C391.229 186.706 391.201 186.643 391.153 186.596C391.104 186.549 391.038 186.523 390.969 186.523C390.9 186.525 390.835 186.551 390.787 186.597C390.738 186.644 390.71 186.706 390.709 186.772V189.653L388.038 187.08C388.014 187.056 387.985 187.038 387.954 187.025C387.922 187.013 387.888 187.006 387.854 187.006C387.819 187.006 387.785 187.013 387.754 187.025C387.722 187.038 387.693 187.056 387.669 187.08C387.621 187.127 387.594 187.19 387.594 187.256C387.594 187.322 387.621 187.385 387.669 187.432L390.345 189.986H387.331C387.263 189.987 387.198 190.014 387.149 190.06C387.101 190.107 387.073 190.169 387.072 190.235C387.072 190.301 387.099 190.364 387.148 190.41C387.196 190.457 387.262 190.483 387.331 190.483H390.345L387.669 193.042C387.621 193.089 387.594 193.152 387.594 193.218C387.594 193.284 387.621 193.347 387.669 193.395C387.719 193.439 387.785 193.464 387.854 193.464C387.922 193.464 387.988 193.439 388.038 193.395L390.709 190.836V193.713C390.709 193.778 390.736 193.842 390.785 193.888C390.834 193.935 390.9 193.961 390.969 193.961C391.038 193.961 391.104 193.935 391.153 193.888C391.201 193.842 391.229 193.778 391.229 193.713V190.836L393.905 193.395C393.955 193.439 394.021 193.464 394.089 193.464C394.158 193.464 394.224 193.439 394.274 193.395C394.322 193.347 394.349 193.284 394.349 193.218C394.349 193.152 394.322 193.089 394.274 193.042L391.598 190.483H394.606C394.675 190.483 394.741 190.457 394.79 190.41C394.839 190.364 394.866 190.301 394.866 190.235C394.862 190.171 394.833 190.112 394.785 190.069C394.736 190.025 394.673 190.001 394.606 190.001Z" fill="#6C63FF" />
    <path d="M478.265 250.442C478.25 249.841 478.172 249.243 478.031 248.658C477.563 246.979 476.508 244.946 474.773 244.44C472.981 243.915 471.25 243.216 469.608 242.353C469.296 237.027 470.574 231.577 469.181 226.414C468.662 224.526 467.804 222.718 467.576 220.785C467.29 218.381 467.976 215.817 466.973 213.601C466.183 211.852 464.447 210.62 462.582 209.974C460.716 209.328 458.705 209.154 456.725 208.98C454.231 208.787 446.156 207.872 443.339 210.004C443.145 210.148 442.97 210.315 442.82 210.501C442.757 210.583 442.702 210.669 442.653 210.759L442.627 210.799C442.571 210.902 442.524 211.01 442.487 211.122C442.448 211.244 442.418 211.368 442.399 211.494C442.399 211.534 442.399 211.574 442.399 211.614C442.399 211.653 442.399 211.787 442.399 211.877V212.011C442.399 212.1 442.399 212.19 442.399 212.284C442.399 212.379 442.399 212.354 442.399 212.389C442.435 212.836 442.503 213.283 442.503 213.725C442.508 213.945 442.487 214.165 442.44 214.381C442.267 214.967 441.974 215.514 441.578 215.991L441.484 216.12C441.427 216.199 441.37 216.274 441.318 216.353C441.266 216.433 441.224 216.493 441.183 216.562C441.141 216.632 441.1 216.676 441.063 216.741C441.013 216.823 440.968 216.907 440.928 216.994C440.928 217.044 440.871 217.089 440.85 217.138C440.785 217.273 440.733 217.412 440.694 217.556C440.572 217.987 440.562 218.441 440.663 218.877C440.803 219.435 441.044 219.964 441.375 220.442C441.505 220.646 441.645 220.845 441.791 221.044L442.154 221.516C442.087 221.977 442.05 222.441 442.045 222.907C442.046 224.463 442.415 225.998 443.126 227.397C443.837 228.797 444.871 230.024 446.151 230.985C446.356 233.084 446.334 235.196 446.083 237.29C446.036 237.727 445.979 238.17 445.917 238.607C445.854 239.044 445.808 239.332 445.745 239.695C444.985 239.799 444.21 239.743 443.474 239.531C443.135 239.386 442.788 239.259 442.435 239.148C440.923 238.786 439.379 240.227 437.883 239.789C437.883 239.859 437.841 239.923 437.815 239.988C437.503 239.802 437.144 239.701 436.776 239.695C435.887 239.655 435.165 239.039 434.521 238.458L432.541 236.674C432.412 236.565 432.297 236.442 432.198 236.306C432.091 236.113 432.011 235.908 431.959 235.695C431.626 234.667 430.821 233.847 430.041 233.067C429.894 232.889 429.698 232.753 429.475 232.675C429.389 232.662 429.301 232.662 429.215 232.675C429.162 232.605 429.105 232.539 429.044 232.476C428.909 232.328 428.765 232.189 428.612 232.059C427.667 231.224 427.573 230.508 426.752 229.574C426.036 228.683 425.386 227.745 424.809 226.767C424.741 226.245 424.647 225.709 424.533 225.167C424.271 223.927 423.89 222.713 423.395 221.54L422.356 219.339L422.236 219.454C421.483 218.381 420.677 217.794 419.955 217.933C418.744 218.172 418.147 220.418 418.339 223.354L418.755 226.335C418.755 226.409 418.791 226.484 418.812 226.558C418.737 226.912 418.699 227.271 418.697 227.632C418.697 228.049 419.103 228.357 419.316 228.73C419.657 229.234 419.837 229.823 419.835 230.424C419.809 230.638 419.742 230.841 419.732 231.05C419.76 231.517 419.93 231.966 420.22 232.342L422.818 236.515L423.338 237.39L423.369 237.429C423.533 237.734 423.772 237.997 424.065 238.194C424.167 239.239 424.457 240.26 424.923 241.21C425.011 241.399 425.11 241.578 425.214 241.757C425.912 242.855 426.735 243.876 427.667 244.802L428.903 246.129C430.125 247.431 431.346 248.737 432.671 249.94C433.145 250.422 433.718 250.806 434.354 251.068C434.666 251.187 435.005 251.225 435.337 251.179C435.669 251.133 435.983 251.003 436.246 250.804C436.246 251.42 436.246 252.036 436.246 252.652C436.439 252.664 436.625 252.724 436.786 252.827C436.946 252.931 437.075 253.073 437.158 253.239C437.242 253.406 437.278 253.591 437.262 253.775C437.246 253.959 437.178 254.136 437.067 254.287C435.976 256.965 434.874 259.668 433.222 262.068C434.388 262.728 435.469 263.516 436.443 264.418C437.076 265.087 437.638 265.815 438.122 266.589C438.169 266.956 438.205 267.319 438.226 267.682C438.61 273.604 436.215 279.482 434.069 285.126C433.45 286.726 432.775 288.4 432.827 290.064C432.419 290.304 432.03 290.572 431.663 290.864C432.089 291.928 431.923 292.877 431.876 294.014C431.86 294.696 431.714 295.37 431.444 296.002C431.218 296.439 430.969 296.866 430.696 297.279C429.35 299.549 429.054 302.247 428.784 304.84C428.623 306.405 429.257 308.318 428.514 309.719C427.23 312.124 426.092 314.688 425.915 317.361C425.909 317.962 425.829 318.561 425.676 319.144C425.515 319.641 425.229 320.064 425.084 320.55C424.934 321.203 424.899 321.874 424.98 322.538C425.079 324.919 424.709 327.297 423.889 329.548C423.239 331.322 422.522 333.22 423.031 335.043C421.778 336.302 421.003 337.928 420.833 339.659C420.82 340.102 420.764 340.542 420.667 340.976C420.508 341.418 420.299 341.843 420.043 342.242C418.997 344.064 418.507 346.13 418.63 348.205C417.071 350.227 416.291 352.721 415.829 355.2C415.366 357.679 415.164 360.203 414.571 362.653C413.782 365.892 412.352 369.166 412.072 372.485C410.388 373.513 409.661 375.506 409.339 377.389C409.016 379.272 408.964 381.249 408.138 382.988C407.712 383.892 407.099 384.702 406.693 385.626C406.409 386.362 406.2 387.123 406.07 387.897C405.821 389.109 405.602 390.461 405.909 391.623C405.468 392.07 404.954 392.444 404.386 392.731C404.469 392.423 404.537 392.115 404.594 391.802C403.253 392.965 400.821 392.557 399.751 393.953C399.43 394.404 399.304 394.955 399.401 395.492C399.498 396.029 399.81 396.509 400.271 396.83C400.606 397.025 400.968 397.174 401.346 397.272C403.945 398.067 406.616 398.867 409.287 398.445C409.602 398.412 409.908 398.319 410.186 398.172C410.533 397.927 410.819 397.611 411.022 397.247C411.422 396.641 411.822 396.035 412.217 395.429C413.174 395.702 414.148 395.92 415.133 396.08C415.231 396.875 415.304 397.67 415.34 398.465C415.86 398.564 416.556 398.594 416.801 398.132C416.875 397.957 416.905 397.768 416.889 397.58C416.889 397.228 416.941 396.761 416.972 396.284H417.076C418.662 396.345 420.239 396.04 421.675 395.394C421.119 390.992 422.953 386.69 424.543 382.526C426.222 378.144 427.661 373.682 429.111 369.221C430.15 366.081 431.299 363.04 432.317 359.895C433.599 355.92 434.886 351.946 436.178 347.971C436.74 346.222 437.306 344.493 437.95 342.754C439.307 339.235 440.916 335.811 442.768 332.504C443.287 331.565 443.807 330.636 444.233 329.662C444.753 328.475 445.122 327.233 445.537 326.006C446.443 323.488 447.534 321.034 448.801 318.662C448.837 318.598 448.863 318.538 448.899 318.479C449.32 320.123 449.741 321.793 450.022 323.447C450.402 325.476 450.432 327.55 450.11 329.588C449.861 330.974 449.388 332.345 449.445 333.751C449.523 335.694 450.609 337.458 451.144 339.331C451.489 340.733 451.684 342.164 451.726 343.604C451.872 345.84 453.14 348.349 452.246 350.42C449.466 356.984 450.812 364.397 449.227 371.288C448.411 374.825 445.911 378.149 446.109 381.766C446.248 384.333 446.483 386.893 446.816 389.447C446.896 390.253 447.115 391.04 447.465 391.777C447.673 392.165 447.911 392.537 448.177 392.89C447.949 392.975 447.756 393.198 447.59 393.67C447.164 394.912 447.59 396.453 448.744 397.148C449.214 397.388 449.72 397.556 450.245 397.645C450.952 397.837 451.683 397.934 452.418 397.933C452.646 397.921 452.873 397.895 453.098 397.854C453.901 398.176 454.722 398.458 455.556 398.698C455.556 398.902 455.598 399.106 455.624 399.309C455.625 399.416 455.65 399.521 455.696 399.618C455.743 399.714 455.81 399.801 455.894 399.871C456.024 399.929 456.167 399.953 456.31 399.94H459.131C459.131 399.717 459.131 399.488 459.131 399.265C459.454 399.297 459.781 399.264 460.089 399.168C460.398 399.072 460.683 398.916 460.924 398.708C461.174 398.404 461.351 398.051 461.444 397.675C462.213 395.181 462.977 392.685 463.735 390.187C464.645 387.427 465.024 384.531 464.853 381.642C463.85 372.485 466.053 363.298 465.336 354.117C464.904 348.598 465.201 343.05 466.219 337.602C466.453 336.37 466.739 335.118 466.843 333.891C467.072 331.575 466.791 329.235 466.963 326.935C467.02 326.13 467.134 325.33 467.238 324.53C467.95 319.565 468.323 314.562 468.355 309.55C468.339 307.89 468.232 306.232 468.033 304.582C468.575 304.45 469.067 304.175 469.452 303.787C469.914 303.211 469.795 302.401 469.789 301.666C469.789 299.907 470.564 298.247 471.187 296.588C471.988 294.299 472.643 291.966 473.152 289.602C473.688 287.697 473.982 285.737 474.025 283.765C474.025 283.566 474.014 283.367 473.993 283.168C474.189 283.039 474.352 282.869 474.471 282.671C474.607 282.38 474.691 282.07 474.721 281.752C474.908 280.485 475.1 279.213 475.287 277.942C475.426 277.031 475.563 276.121 475.698 275.214L477.35 264.189C477.491 263.23 477.636 262.276 477.776 261.322L478.208 258.47C478.254 258.133 478.306 257.795 478.343 257.477C479.611 255.45 478.4 252.747 478.265 250.442ZM464.479 291.719C463.865 290.328 463.294 288.902 463.439 287.401H463.382C463.519 286.94 463.495 286.448 463.315 286C463.153 285.638 462.873 285.33 462.701 284.967C462.517 284.524 462.422 284.052 462.421 283.576C462.292 280.554 462.541 277.528 463.164 274.563C463.231 274.215 463.304 273.863 463.372 273.515C463.59 273.394 463.789 273.246 463.964 273.073C464.237 272.775 464.463 272.44 464.634 272.079C465.222 270.951 465.757 269.803 466.251 268.636C466.412 268.258 466.646 267.821 467.046 267.727C466.962 270.633 467.274 273.599 466.038 276.222C465.803 276.646 465.628 277.097 465.518 277.564C465.404 278.304 465.726 279.054 465.611 279.79C465.554 280.172 465.383 280.525 465.315 280.903C465.264 281.088 465.265 281.283 465.318 281.468C465.371 281.653 465.474 281.821 465.617 281.956C465.685 282.002 465.761 282.039 465.84 282.065C465.809 282.264 465.783 282.468 465.762 282.662C465.721 283.069 465.7 283.452 465.674 283.69C465.554 284.905 465.507 286.126 465.533 287.347C465.533 288.663 465.585 289.98 465.565 291.321C465.584 291.707 465.517 292.091 465.367 292.449C465.264 292.634 465.131 292.802 464.972 292.946C464.822 292.499 464.655 292.106 464.479 291.719Z" fill="url(#paint0_linear)" />
    <path d="M423.459 234.071C425.044 233.76 425.584 230.028 424.664 225.735C423.744 221.442 421.713 218.214 420.127 218.525C418.541 218.835 418.002 222.567 418.922 226.86C419.842 231.153 421.873 234.381 423.459 234.071Z" fill="#FBBEBE" />
    <path d="M447.673 393.765C447.247 394.997 447.673 396.537 448.827 397.208C449.294 397.446 449.797 397.613 450.318 397.705C451.023 397.895 451.752 397.99 452.485 397.988C453.384 397.948 454.247 397.61 455.146 397.491C455.249 397.466 455.359 397.48 455.452 397.531C455.497 397.577 455.531 397.632 455.551 397.692C455.571 397.752 455.576 397.816 455.567 397.878C455.576 398.367 455.614 398.855 455.681 399.339C455.682 399.446 455.706 399.551 455.753 399.648C455.799 399.745 455.867 399.831 455.951 399.901C456.081 399.958 456.224 399.982 456.367 399.97H459.183C459.247 397.604 458.976 395.241 458.378 392.945C458.339 392.769 458.269 392.601 458.17 392.448C457.931 392.198 457.617 392.024 457.271 391.951C456.582 391.677 455.839 391.553 455.094 391.588C454.184 391.703 453.426 392.264 452.651 392.731C451.877 393.198 450.822 393.611 449.882 393.372C448.941 393.134 448.156 392.383 447.673 393.765Z" fill="#3F3D56" />
    <path d="M406.319 391.584C405.528 392.394 404.556 393.026 403.477 393.432L402.999 393.65C402.933 393.674 402.876 393.718 402.838 393.775C402.829 393.813 402.829 393.853 402.837 393.892C402.846 393.931 402.864 393.967 402.89 393.998C403.287 394.586 403.875 395.034 404.564 395.274C405.252 395.513 406.004 395.531 406.704 395.325C407.013 395.251 407.3 395.108 407.541 394.907C407.937 394.458 408.164 393.895 408.185 393.308C408.342 392.702 408.315 392.066 408.107 391.474C407.385 389.919 407.12 390.625 406.319 391.584Z" fill="#FBBEBE" />
    <path d="M417.118 397.705C417.134 397.892 417.103 398.081 417.029 398.256C416.785 398.713 416.104 398.688 415.574 398.589C415.494 396.903 415.28 395.226 414.935 393.571C413.927 393.526 413.2 394.44 412.659 395.26L411.266 397.372C411.065 397.735 410.781 398.051 410.435 398.296C410.157 398.441 409.851 398.534 409.536 398.569C406.875 398.991 404.189 398.191 401.622 397.397C401.244 397.3 400.882 397.152 400.546 396.959C400.088 396.638 399.778 396.159 399.681 395.624C399.584 395.088 399.708 394.538 400.026 394.088C401.102 392.696 403.519 393.094 404.859 391.941C404.719 392.752 404.489 393.547 404.173 394.311C405.966 394.053 407.172 392.483 408.616 391.434C408.979 391.14 409.416 390.941 409.884 390.858C410.234 390.83 410.587 390.865 410.924 390.962C412.589 391.364 414.148 392.097 415.496 393.114C416.042 393.526 416.894 394.107 417.133 394.743C417.388 395.504 417.118 396.895 417.118 397.705Z" fill="#3F3D56" />
    <path d="M452.864 233.778C458.794 233.778 463.6 229.182 463.6 223.513C463.6 217.844 458.794 213.248 452.864 213.248C446.935 213.248 442.128 217.844 442.128 223.513C442.128 229.182 446.935 233.778 452.864 233.778Z" fill="#FBBEBE" />
    <path d="M474.014 284.117C473.971 286.08 473.679 288.03 473.146 289.925C472.638 292.279 471.982 294.602 471.182 296.881C470.564 298.536 469.789 300.195 469.795 301.949C469.795 302.679 469.919 303.489 469.452 304.065C469.035 304.47 468.51 304.757 467.934 304.895C467.647 304.968 467.381 305.104 467.159 305.293C466.937 305.482 466.765 305.719 466.656 305.983C466.168 305.286 465.803 304.517 465.575 303.708C464.643 300.978 463.777 298.234 462.977 295.475C462.904 295.316 462.872 295.143 462.885 294.97C462.897 294.796 462.954 294.629 463.049 294.481C463.181 294.372 463.335 294.289 463.502 294.238C464.034 294.03 464.522 293.73 464.941 293.354C465.138 293.187 465.3 292.986 465.419 292.762C465.57 292.406 465.639 292.023 465.622 291.639C465.622 290.323 465.622 289.011 465.585 287.695C465.564 286.479 465.612 285.263 465.731 284.053C465.731 283.814 465.778 283.432 465.819 283.024C465.897 282.244 466.053 281.34 466.495 281.037C467.155 280.615 469.129 281.181 469.878 281.28C471.166 281.449 472.476 281.648 473.733 281.881C473.916 282.614 474.01 283.364 474.014 284.117Z" fill="#3F3D56" />
    <path d="M430.665 235.005C430.249 235.8 429.251 236.182 428.482 236.684L425.848 238.413C425.672 238.565 425.465 238.681 425.241 238.754C425.017 238.828 424.78 238.857 424.543 238.84C424.329 238.765 424.133 238.649 423.966 238.499C423.799 238.35 423.665 238.17 423.572 237.971C423.573 237.958 423.573 237.944 423.572 237.931L423.026 237.057L420.428 232.893C420.139 232.52 419.971 232.075 419.945 231.611C419.945 231.398 420.023 231.199 420.043 230.985C420.05 230.385 419.869 229.797 419.524 229.296C419.316 228.924 418.9 228.615 418.91 228.198C418.891 227.65 418.99 227.103 419.201 226.593C419.474 226.122 419.865 225.722 420.339 225.431C420.584 225.262 420.833 225.103 421.093 224.934C421.231 224.844 421.384 224.777 421.545 224.735C421.976 224.651 422.402 224.994 422.839 225.008C424.715 226.211 425.437 228.486 426.913 230.126C427.745 231.06 427.828 231.775 428.768 232.61C428.919 232.739 429.064 232.878 429.205 233.022C429.391 233.216 429.548 233.434 429.672 233.668C429.844 234.096 430.878 234.597 430.665 235.005Z" fill="#3F3D56" />
    <path d="M449.092 233.783C449.866 235.348 450.469 237.067 450.245 238.786C450.2 239.251 450.045 239.701 449.793 240.102C449.045 241.2 447.476 241.399 446.109 241.464C445.821 241.441 445.531 241.473 445.256 241.558C444.981 241.643 444.727 241.78 444.508 241.961C444.326 242.214 444.236 242.519 444.254 242.826C444.272 243.134 444.396 243.427 444.607 243.66C445.046 244.108 445.592 244.449 446.197 244.653C448.359 245.563 450.692 246.313 453.041 246.104C454.132 246.005 455.192 245.702 456.278 245.548C457.462 245.425 458.652 245.362 459.843 245.359C461.257 245.309 462.665 245.175 464.073 245.041L467.804 244.688C468.008 244.691 468.206 244.622 468.36 244.494C468.636 244.186 468.282 243.734 467.939 243.501C465.96 242.1 463.439 241.136 462.312 239.029C461.792 238.035 461.631 236.853 461.246 235.78C460.862 234.707 460.249 233.738 460.01 232.645C459.882 231.686 459.825 230.72 459.838 229.753C459.851 228.779 459.48 227.835 458.799 227.11C458.056 226.449 456.98 226.28 455.972 226.241C453.488 226.136 450.843 226.703 449.081 228.377C448.608 228.829 448.203 229.371 447.715 229.778C447.226 230.185 446.561 230.305 446.883 230.841C447.205 231.378 447.839 231.711 448.182 232.183C448.529 232.692 448.834 233.227 449.092 233.783Z" fill="#FBBEBE" />
    <path d="M470.257 248.236C469.602 252.061 468.536 255.812 467.077 259.429C466.343 261.063 465.718 262.739 465.206 264.447C464.806 265.988 464.884 267.637 464.515 269.182C464.058 271.105 463.6 273.033 463.231 274.97C462.612 277.929 462.365 280.948 462.493 283.963C462.495 284.438 462.59 284.908 462.774 285.349C462.946 285.707 463.221 286.015 463.382 286.383C463.503 286.706 463.552 287.049 463.527 287.391C463.502 287.733 463.403 288.066 463.237 288.37C462.97 288.939 462.608 289.462 462.166 289.92C457.323 291.302 452.142 290.849 447.096 291.143C442.445 291.411 437.742 292.325 433.159 291.565C432.64 289.577 433.507 287.496 434.25 285.558C436.407 279.929 438.792 274.066 438.408 268.169C438.367 267.481 438.286 266.796 438.163 266.117C437.41 261.938 438.231 257.611 439.546 253.562C440.362 251.038 440.325 248.35 440.138 245.722C440.046 244.868 440.033 244.008 440.102 243.153C440.177 242.279 440.516 241.446 441.079 240.753C441.079 240.718 441.125 240.684 441.151 240.649C441.177 240.614 441.38 240.619 441.541 240.649C441.582 240.666 441.626 240.674 441.671 240.674C441.716 240.674 441.76 240.666 441.801 240.649L441.858 240.614C441.88 240.599 441.906 240.591 441.933 240.591C441.96 240.591 441.987 240.599 442.009 240.614C442.128 240.684 442.196 240.922 442.456 240.967C442.84 241.022 443.227 241.057 443.615 241.071C444.081 241.084 444.545 241.148 444.997 241.26H445.059C445.735 241.369 446.429 241.313 447.075 241.096C447.506 240.993 447.921 240.84 448.312 240.639C448.427 240.52 449.144 240.41 449.289 240.326C449.762 240.053 449.658 238.771 449.757 238.244C449.811 237.716 449.943 237.198 450.147 236.704C450.383 236.34 450.71 236.036 451.098 235.821C451.485 235.605 451.922 235.483 452.371 235.467C453.265 235.446 454.16 235.523 455.036 235.695C456.975 235.959 458.96 235.914 460.862 236.341C461.818 236.555 462.862 236.878 463.741 236.461C463.98 236.515 464.016 236.714 464.016 236.957C463.994 237.189 463.945 237.417 463.871 237.638C463.538 239.009 464.666 240.271 465.705 241.265C466.144 241.733 466.662 242.128 467.238 242.432C467.757 242.661 468.277 242.755 468.797 243.004C469.218 243.219 469.575 243.531 469.836 243.913C470.136 244.351 470.337 244.843 470.429 245.359C470.54 246.32 470.482 247.293 470.257 248.236Z" fill="#3F3D56" />
    <path opacity="0.1" d="M470.257 248.236C469.602 252.061 468.536 255.812 467.077 259.429C466.343 261.063 465.718 262.739 465.206 264.447C464.806 265.988 464.884 267.637 464.515 269.182C464.058 271.105 463.6 273.033 463.231 274.971C463.122 275.03 463.008 275.085 462.894 275.134C462.247 275.43 461.562 275.64 460.857 275.76C459.59 275.907 458.307 275.867 457.053 275.641L449.637 274.692C446.675 274.31 443.521 273.848 441.323 271.93C440.102 270.877 439.301 269.485 438.423 268.144C438.383 267.456 438.301 266.771 438.179 266.092C437.426 261.914 438.247 257.586 439.561 253.537C440.377 251.013 440.341 248.325 440.154 245.697C440.061 244.843 440.049 243.984 440.117 243.128C440.192 242.254 440.532 241.421 441.094 240.728C441.246 240.686 441.401 240.653 441.557 240.629C441.661 240.609 441.767 240.595 441.874 240.589H442.024C442.2 240.59 442.374 240.61 442.544 240.649C442.898 240.757 443.245 240.884 443.583 241.031H443.646C444.091 241.172 444.559 241.236 445.028 241.22C445.714 241.22 446.421 241.116 447.107 241.071C447.954 240.945 448.821 241.093 449.57 241.493C450.053 241.865 450.511 242.265 450.942 242.691C451.462 243.081 452.047 243.385 452.672 243.59C457.145 245.223 462.108 245.123 466.505 243.312C466.928 243.082 467.407 242.966 467.893 242.974C468.251 243.041 468.591 243.18 468.89 243.381C469.202 243.555 469.509 243.724 469.826 243.878C470.125 244.316 470.327 244.808 470.418 245.324C470.537 246.296 470.483 247.281 470.257 248.236Z" fill="black" />
    <path d="M474.783 244.946C472.714 244.342 470.726 243.508 468.859 242.462C468.56 242.262 468.22 242.124 467.862 242.055C467.374 242.049 466.894 242.166 466.469 242.393C462.073 244.203 457.112 244.303 452.641 242.671C452.016 242.464 451.432 242.16 450.911 241.772C450.479 241.347 450.021 240.947 449.539 240.574C447.829 239.516 445.465 240.758 443.552 240.077C443.213 239.933 442.866 239.805 442.513 239.695C441.001 239.332 439.463 240.773 437.976 240.336C437.424 241.773 437.015 243.257 436.755 244.768C436.544 246.503 436.431 248.248 436.418 249.994C436.418 251.043 436.366 252.091 436.418 253.139C436.601 253.168 436.776 253.233 436.931 253.329C437.087 253.426 437.22 253.552 437.322 253.701C437.39 253.874 437.418 254.059 437.404 254.244C437.389 254.428 437.333 254.607 437.239 254.769C436.153 257.437 435.051 260.135 433.404 262.525C434.565 263.186 435.642 263.973 436.615 264.87C438.434 266.708 439.328 269.287 441.292 270.986C443.506 272.899 446.66 273.366 449.606 273.743L457.022 274.692C458.278 274.917 459.562 274.959 460.831 274.816C461.534 274.694 462.218 274.481 462.863 274.185C463.284 274.017 463.668 273.774 463.995 273.47C464.269 273.173 464.495 272.838 464.666 272.476C465.253 271.353 465.788 270.206 466.282 269.043C466.453 268.631 466.713 268.149 467.181 268.114C469.935 265.739 472.533 263.305 475.287 260.93C476.394 260.053 477.387 259.052 478.244 257.949C479.611 256.016 478.369 253.278 478.244 250.943C478.229 250.346 478.151 249.752 478.01 249.17C477.563 247.475 476.514 245.448 474.783 244.946Z" fill="#6C63FF" />
    <path opacity="0.1" d="M430.665 235.005C430.249 235.8 429.252 236.182 428.482 236.684L425.848 238.413C425.672 238.565 425.466 238.681 425.241 238.754C425.017 238.828 424.78 238.857 424.544 238.84C424.329 238.765 424.133 238.649 423.966 238.499C423.799 238.35 423.665 238.17 423.572 237.971C423.572 237.857 423.572 237.732 423.572 237.613C423.552 237.211 423.608 236.809 423.738 236.426C423.996 235.864 424.396 235.372 424.902 234.995C425.88 234.109 427.044 233.432 428.316 233.008C428.515 232.934 428.73 232.913 428.94 232.948C429.021 232.968 429.098 233 429.168 233.042C429.354 233.236 429.512 233.454 429.636 233.688C429.844 234.096 430.878 234.597 430.665 235.005Z" fill="black" />
    <path d="M436.87 240.241C435.986 240.202 435.264 239.591 434.62 239.009L432.65 237.26C432.518 237.154 432.403 237.03 432.307 236.893C432.201 236.7 432.12 236.494 432.068 236.282C431.65 235.278 430.996 234.38 430.156 233.658C430.009 233.48 429.813 233.346 429.589 233.271C429.378 233.234 429.16 233.254 428.961 233.33C427.688 233.754 426.524 234.431 425.546 235.318C425.041 235.695 424.641 236.187 424.382 236.749C424.252 237.131 424.195 237.534 424.216 237.936C424.228 239.249 424.537 240.544 425.12 241.732C425.209 241.916 425.307 242.1 425.411 242.278C426.105 243.374 426.924 244.392 427.854 245.314L429.09 246.636C430.306 247.937 431.522 249.239 432.842 250.437C433.315 250.919 433.889 251.302 434.526 251.559C434.846 251.684 435.195 251.722 435.536 251.67C435.877 251.617 436.197 251.476 436.459 251.261C436.708 250.986 436.895 250.665 437.01 250.317C437.81 248.33 438.569 246.263 438.616 244.122C438.627 243.264 438.589 242.407 438.501 241.553C438.423 240.649 437.753 240.296 436.87 240.241Z" fill="#6C63FF" />
    <path d="M468.36 309.799C468.33 314.797 467.959 319.787 467.248 324.739C467.144 325.539 467.03 326.339 466.973 327.139C466.801 329.459 467.082 331.789 466.853 334.094C466.734 335.341 466.464 336.578 466.235 337.796C465.22 343.229 464.923 348.762 465.352 354.266C466.069 363.423 463.871 372.584 464.868 381.716C464.989 383.492 464.886 385.275 464.562 387.028C464.376 388.115 464.107 389.188 463.756 390.237C462.998 392.725 462.236 395.209 461.47 397.69C461.38 398.067 461.202 398.42 460.95 398.723C460.685 398.942 460.374 399.105 460.038 399.2C459.702 399.295 459.349 399.321 459.002 399.275C456.003 399.185 453.181 397.948 450.459 396.741C450.145 396.623 449.855 396.455 449.601 396.244C449.035 395.682 449.081 394.798 448.832 394.058C448.583 393.318 447.907 392.622 447.522 391.862C447.206 391.143 447.015 390.379 446.956 389.601C446.61 387.057 446.374 384.504 446.249 381.94C446.052 378.333 448.546 375.014 449.367 371.506C450.926 364.61 449.606 357.217 452.376 350.674C453.249 348.607 451.981 346.103 451.856 343.877C451.811 342.441 451.617 341.013 451.274 339.614C450.755 337.746 449.658 335.987 449.58 334.05C449.523 332.649 449.996 331.282 450.24 329.901C450.564 327.868 450.534 325.798 450.152 323.775C449.876 322.106 449.456 320.436 449.035 318.807L448.941 318.99C447.675 321.356 446.586 323.805 445.683 326.319C445.267 327.536 444.903 328.778 444.384 329.961C443.958 330.954 443.433 331.863 442.918 332.798C441.073 336.091 439.467 339.503 438.112 343.008C437.467 344.727 436.901 346.485 436.34 348.21L432.489 360.134C431.45 363.269 430.312 366.299 429.293 369.43C427.854 373.901 426.414 378.333 424.741 382.705C423.182 386.854 421.327 391.151 421.883 395.533C420.45 396.177 418.876 396.482 417.294 396.423C414.616 396.196 411.989 395.587 409.5 394.614C408.507 394.262 407.478 393.864 406.808 393.084C405.654 391.738 405.94 389.765 406.288 388.051C406.419 387.278 406.628 386.52 406.912 385.785C407.307 384.871 407.951 384.061 408.356 383.157C409.172 381.423 409.224 379.461 409.547 377.578C409.869 375.695 410.586 373.707 412.269 372.684C412.555 369.375 413.979 366.111 414.764 362.876C415.356 360.427 415.554 357.908 416.021 355.424C416.489 352.939 417.242 350.455 418.812 348.443C418.688 346.368 419.178 344.302 420.225 342.481C420.478 342.081 420.686 341.656 420.844 341.214C420.941 340.783 420.996 340.344 421.01 339.902C421.182 338.176 421.954 336.554 423.203 335.297C422.683 333.483 423.406 331.59 424.055 329.831C424.873 327.587 425.243 325.216 425.146 322.841C425.066 322.178 425.099 321.506 425.245 320.854C425.391 320.357 425.676 319.934 425.843 319.457C425.991 318.873 426.069 318.275 426.077 317.674C426.279 314.986 427.417 312.452 428.675 310.052C429.423 308.651 428.789 306.748 428.945 305.188C429.215 302.595 429.511 299.912 430.857 297.651C431.107 297.224 431.377 296.816 431.6 296.374C431.871 295.743 432.017 295.069 432.032 294.387C432.078 293.249 432.245 292.305 431.819 291.247C434.599 289.036 438.392 288.415 442.009 288.266C445.626 288.117 449.284 288.43 452.823 287.695C453.862 287.471 454.902 287.163 455.998 287.014C458.487 286.666 461.013 287.208 463.471 287.744C463.299 289.235 463.871 290.666 464.51 292.052C467.005 297.667 468.314 303.698 468.36 309.799Z" fill="#33313F" />
    <path opacity="0.1" d="M456.123 310.937L450.152 323.775C449.876 322.106 449.455 320.436 449.035 318.807L448.941 318.99V318.722L452.194 311.881L456.123 310.937Z" fill="black" />
    <path opacity="0.1" d="M474.014 284.117C473.67 284.364 473.259 284.51 472.829 284.54C472.171 284.562 471.514 284.476 470.886 284.286L466.209 283.168C466.062 283.134 465.92 283.085 465.783 283.024C465.861 282.244 466.017 281.34 466.458 281.037C467.118 280.615 469.093 281.181 469.841 281.28C471.13 281.449 472.44 281.648 473.697 281.881C473.892 282.613 473.999 283.363 474.014 284.117Z" fill="black" />
    <path d="M477.969 254.555C478.067 254.968 478.208 255.375 478.291 255.793C478.431 256.816 478.394 257.855 478.182 258.868L477.756 261.71L477.329 264.567L475.682 275.562L475.277 278.284L474.705 282.085C474.678 282.402 474.594 282.711 474.456 282.999C474.286 283.27 474.048 283.495 473.764 283.655C473.48 283.816 473.159 283.906 472.829 283.919C472.171 283.939 471.514 283.853 470.886 283.665L466.209 282.542C466.004 282.508 465.809 282.431 465.637 282.319C465.494 282.185 465.391 282.018 465.338 281.834C465.285 281.649 465.285 281.455 465.336 281.27C465.404 280.893 465.575 280.54 465.632 280.162C465.746 279.427 465.424 278.672 465.539 277.942C465.651 277.477 465.825 277.027 466.058 276.605C467.617 273.311 466.713 269.466 467.243 265.888C467.72 263.073 468.964 260.427 470.849 258.217C472.013 256.822 473.35 255.567 474.83 254.481C475.412 254.049 476.337 253.159 477.07 252.99C478.01 252.802 477.813 253.929 477.969 254.555Z" fill="#6C63FF" />
    <path d="M442.575 211.758C442.232 212.801 442.768 213.949 442.523 215.012C442.258 216.185 441.105 216.999 440.777 218.177C440.258 219.97 441.848 221.605 443.012 223.096C447.325 228.63 446.759 236.292 445.283 243.044C444.095 248.461 442.453 253.778 440.372 258.943C439.722 260.547 439.005 262.177 437.727 263.379C440.117 262.723 442.659 262.063 445.054 262.699C448.089 263.503 450.708 266.321 453.784 265.68C455.634 265.287 456.933 263.717 458.596 262.848C461.714 261.243 465.471 262.251 468.948 262.768C469.697 262.937 470.481 262.899 471.208 262.659C471.764 262.373 472.236 261.958 472.58 261.452C474.131 259.548 475.061 257.25 475.251 254.844C475.333 253.645 475.148 252.444 474.708 251.32C474.268 250.195 473.584 249.173 472.699 248.32C471.962 247.654 471.078 247.118 470.512 246.333C469.961 245.416 469.666 244.379 469.654 243.322C469.244 237.857 470.636 232.277 469.202 226.991C468.683 225.108 467.836 223.304 467.607 221.377C467.321 218.977 468.002 216.408 467.004 214.212C466.219 212.468 464.489 211.231 462.623 210.595C460.758 209.959 458.762 209.78 456.783 209.601C453.935 209.373 443.765 208.205 442.575 211.758Z" fill="#33313F" />
    <g opacity="0.1">
      <path opacity="0.1" d="M445.283 243.044C444.101 248.438 442.468 253.734 440.398 258.878C440.757 258.197 441.058 257.482 441.344 256.771C443.427 251.607 445.069 246.29 446.254 240.872C447.735 234.115 448.302 226.464 443.989 220.924C442.949 219.603 441.614 218.172 441.661 216.622C441.277 217.091 440.978 217.618 440.777 218.182C440.258 219.975 441.848 221.61 443.012 223.101C447.325 228.63 446.758 236.292 445.283 243.044Z" fill="black" />
      <path opacity="0.1" d="M442.586 214.51C443.003 214.015 443.313 213.446 443.5 212.836C443.581 212.098 443.56 211.353 443.438 210.62C443.038 210.908 442.737 211.304 442.575 211.758C442.269 212.637 442.622 213.591 442.586 214.51Z" fill="black" />
      <path opacity="0.1" d="M473.557 259.265C473.213 259.77 472.741 260.184 472.185 260.468C471.459 260.713 470.673 260.751 469.925 260.577C466.448 260.08 462.649 259.057 459.573 260.661C457.905 261.526 456.611 263.096 454.756 263.493C451.685 264.149 449.066 261.332 446.031 260.512C443.88 259.941 441.614 260.413 439.447 261.009C439.017 261.887 438.435 262.69 437.727 263.384C440.117 262.728 442.659 262.068 445.054 262.704C448.089 263.508 450.708 266.325 453.784 265.685C455.634 265.292 456.933 263.722 458.596 262.853C461.714 261.248 465.471 262.256 468.948 262.773C469.697 262.942 470.481 262.904 471.208 262.664C471.764 262.378 472.236 261.963 472.58 261.456C473.522 260.269 474.249 258.939 474.731 257.521C474.384 258.129 473.992 258.712 473.557 259.265Z" fill="black" />
    </g>
  </g>
  <defs>
    <linearGradient id="paint0_linear" x1="399.403" y1="304.274" x2="478.909" y2="304.274" gradientUnits="userSpaceOnUse">
      <stop stop-color="#808080" stop-opacity="0.25" />
      <stop offset="0.54" stop-color="#808080" stop-opacity="0.12" />
      <stop offset="1" stop-color="#808080" stop-opacity="0.1" />
    </linearGradient>
    <clipPath id="clip0">
      <rect width="606" height="400" fill="white" />
    </clipPath>
  </defs>
</svg>
