<svg width="296" height="94" viewBox="0 0 296 94" fill="none" xmlns="http://www.w3.org/2000/svg">
<path d="M6 10.8154C6 9.74462 17.22 11.2615 27.3974 8.34667C37.5748 5.4318 48.075 1 48.075 1V93.8C48.075 93.8 28.44 82.6462 20.025 71.9385C14.7656 65.2462 7.4025 51.8615 6 39.3692C6 25.5385 6 11.398 6 10.8154Z" fill="#494765"/>
<path d="M90.075 10.8154C90.075 9.74462 78.855 11.2615 68.6776 8.34667C58.5002 5.4318 48 1 48 1V93.8C48 93.8 67.635 82.6462 76.05 71.9385C81.3094 65.2462 88.6725 51.8615 90.075 39.3692C90.075 25.5385 90.075 11.398 90.075 10.8154Z" fill="#413E68"/>
<path d="M10.95 14.6C10.95 13.64 20.85 15 29.8301 12.3867C38.8101 9.77332 48.075 5.79999 48.075 5.79999V89C48.075 89 30.75 79 23.325 69.4C18.6844 63.4 12.1875 51.4 10.95 40.2C10.95 27.8 10.95 15.1223 10.95 14.6Z" fill="#3F3D56"/>
<path d="M85.125 14.8C85.125 13.84 75.225 15.2 66.2449 12.5867C57.2649 9.97334 48 5.82022 48 5.82022V89C48 89 65.325 79.2 72.75 69.6C77.3906 63.6 83.8875 51.6 85.125 40.4C85.125 28 85.125 15.3224 85.125 14.8Z" fill="#343252"/>
<path d="M31 42H65.4667V64.1619C65.4667 66.9233 63.2281 69.1619 60.4667 69.1619H36C33.2386 69.1619 31 66.9233 31 64.1619V42Z" fill="#6C63FF"/>
<path d="M48 62V58" stroke="#5D55DF" stroke-width="5"/>
<path d="M52 55.5C52 57.433 50.2091 59 48 59C45.7909 59 44 57.433 44 55.5C44 53.567 45.7909 52 48 52C50.2091 52 52 53.567 52 55.5Z" fill="#5D55DF"/>
<path d="M36.4944 42.0857V32.0476C36.4944 32.0476 36.8136 22.6 48.3025 22.6C59.7914 22.6 59.4722 32.0476 59.4722 32.0476V42.0857" stroke="url(#paint0_linear)" stroke-width="5"/>
<path d="M50.5364 55.7619C50.5364 57.0663 49.3934 58.1238 47.9833 58.1238C46.5733 58.1238 45.4302 57.0663 45.4302 55.7619C45.4302 54.4575 46.5733 53.4 47.9833 53.4C49.3934 53.4 50.5364 54.4575 50.5364 55.7619Z" fill="#3F3D56"/>
<path d="M47.9833 60.9809V57.1429" stroke="#3F3D56" stroke-width="4"/>
<path d="M113.504 59.4H110.101C109.527 59.4 109.24 59.113 109.24 58.539V33.898C109.24 33.324 109.527 33.037 110.101 33.037H113.176C113.75 33.037 114.133 33.2284 114.324 33.611L122.606 49.15H122.77V33.898C122.77 33.324 123.057 33.037 123.631 33.037H127.034C127.608 33.037 127.895 33.324 127.895 33.898V58.539C127.895 59.113 127.608 59.4 127.034 59.4H124.041C123.44 59.4 123.002 59.1267 122.729 58.58L114.529 43.328H114.365V58.539C114.365 59.113 114.078 59.4 113.504 59.4ZM147.491 59.4H134.084C133.51 59.4 133.223 59.113 133.223 58.539V33.898C133.223 33.324 133.51 33.037 134.084 33.037H147.491C148.038 33.037 148.311 33.324 148.311 33.898V36.686C148.311 37.26 148.038 37.547 147.491 37.547H138.922C138.594 37.547 138.43 37.6974 138.43 37.998V43.328C138.43 43.6287 138.594 43.779 138.922 43.779H145.933C146.507 43.779 146.794 44.066 146.794 44.64V47.428C146.794 48.002 146.507 48.289 145.933 48.289H138.922C138.594 48.289 138.43 48.4394 138.43 48.74V54.439C138.43 54.7397 138.594 54.89 138.922 54.89H147.491C148.038 54.89 148.311 55.177 148.311 55.751V58.539C148.311 59.113 148.038 59.4 147.491 59.4ZM155.835 59.4H151.776C151.503 59.4 151.312 59.318 151.202 59.154C151.093 58.9627 151.093 58.744 151.202 58.498L157.557 45.911L151.407 33.939C151.298 33.7204 151.298 33.5154 151.407 33.324C151.517 33.1327 151.708 33.037 151.981 33.037H155.917C156.601 33.037 157.052 33.324 157.27 33.898L161.165 42.713H161.329L165.183 33.898C165.457 33.324 165.894 33.037 166.495 33.037H170.513C170.787 33.037 170.978 33.1464 171.087 33.365C171.224 33.5564 171.238 33.7614 171.128 33.98L164.896 45.911L171.251 58.457C171.388 58.7304 171.402 58.9627 171.292 59.154C171.183 59.318 170.978 59.4 170.677 59.4H166.577C166.003 59.4 165.607 59.1267 165.388 58.58L161.329 49.724H161.165L157.065 58.58C156.819 59.1267 156.409 59.4 155.835 59.4ZM183.143 59.4H179.699C179.098 59.4 178.797 59.113 178.797 58.539V37.998C178.797 37.6974 178.647 37.547 178.346 37.547H173.672C173.098 37.547 172.811 37.26 172.811 36.686V33.898C172.811 33.324 173.098 33.037 173.672 33.037H189.17C189.744 33.037 190.031 33.324 190.031 33.898V36.686C190.031 37.26 189.744 37.547 189.17 37.547H184.496C184.168 37.547 184.004 37.6974 184.004 37.998V58.539C184.004 59.113 183.717 59.4 183.143 59.4ZM204.918 59.4H200.982C200.49 59.4 200.326 59.113 200.49 58.539L206.968 33.898C207.159 33.324 207.569 33.037 208.198 33.037H213.651C214.334 33.037 214.744 33.324 214.881 33.898L221.359 58.539C221.523 59.113 221.359 59.4 220.867 59.4H216.931C216.63 59.4 216.425 59.3454 216.316 59.236C216.206 59.0994 216.124 58.867 216.07 58.539L214.922 54.029H206.927L205.779 58.539C205.724 58.867 205.628 59.0994 205.492 59.236C205.382 59.3454 205.191 59.4 204.918 59.4ZM210.863 37.998L207.911 49.847H213.979L211.027 37.998H210.863ZM238.482 33.037H241.926C242.527 33.037 242.828 33.3104 242.828 33.857V52.717C242.828 54.849 242.227 56.5027 241.024 57.678C239.849 58.826 238.195 59.4 236.063 59.4H231.553C229.394 59.4 227.726 58.826 226.551 57.678C225.376 56.53 224.788 54.8764 224.788 52.717V33.898C224.788 33.324 225.075 33.037 225.649 33.037H229.134C229.708 33.037 229.995 33.324 229.995 33.898V52.471C229.995 53.3457 230.173 53.9744 230.528 54.357C230.911 54.7124 231.526 54.89 232.373 54.89H235.202C236.077 54.89 236.692 54.7124 237.047 54.357C237.43 53.9744 237.621 53.3457 237.621 52.471V33.898C237.621 33.324 237.908 33.037 238.482 33.037ZM256.094 59.4H252.65C252.049 59.4 251.748 59.113 251.748 58.539V37.998C251.748 37.6974 251.598 37.547 251.297 37.547H246.623C246.049 37.547 245.762 37.26 245.762 36.686V33.898C245.762 33.324 246.049 33.037 246.623 33.037H262.121C262.695 33.037 262.982 33.324 262.982 33.898V36.686C262.982 37.26 262.695 37.547 262.121 37.547H257.447C257.119 37.547 256.955 37.6974 256.955 37.998V58.539C256.955 59.113 256.668 59.4 256.094 59.4ZM270.459 59.4H266.974C266.4 59.4 266.113 59.113 266.113 58.539V33.898C266.113 33.324 266.4 33.037 266.974 33.037H270.459C271.033 33.037 271.32 33.324 271.32 33.898V43.533C271.32 43.8337 271.484 43.984 271.812 43.984H278.741C279.042 43.984 279.192 43.8337 279.192 43.533V33.898C279.192 33.324 279.479 33.037 280.053 33.037H283.538C284.112 33.037 284.399 33.324 284.399 33.898V58.539C284.399 59.113 284.112 59.4 283.538 59.4H280.053C279.479 59.4 279.192 59.113 279.192 58.539V48.945C279.192 48.6444 279.042 48.494 278.741 48.494H271.812C271.484 48.494 271.32 48.6444 271.32 48.945V58.539C271.32 59.113 271.033 59.4 270.459 59.4Z" fill="white"/>
<defs>
<linearGradient id="paint0_linear" x1="47.9838" y1="22.6" x2="47.9838" y2="42.0857" gradientUnits="userSpaceOnUse">
<stop stop-color="#98959F"/>
<stop offset="1" stop-color="#454347"/>
</linearGradient>
</defs>
</svg>
