<svg width="148" height="148" viewBox="0 0 148 148" fill="none" xmlns="http://www.w3.org/2000/svg">
<g id="Frame 5">
<rect width="148" height="148" rx="74" fill="#97FFC1"/>
<g id="Human">
<circle id="Ellipse 5" cx="66" cy="45" r="24" fill="#3F3D56"/>
<path id="Rectangle 25" d="M26 110.454C26 88.584 43.5826 70.7774 65.4513 70.5006V70.5006C65.4838 70.5002 65.5069 70.5 65.5394 70.5002C66.5497 70.5079 86.7266 70.8147 95.5 83C97.7059 86.0637 93.5485 87.3569 90 89.5C87.2532 91.1589 85.4723 93.6106 83.5 96C81.5335 98.3823 80.0469 101.733 79.5 105C79.2435 106.532 79.5 108.5 79.5 109.5C79.5 113 77.0003 113 77 113C77 113 77 113 77 113H27.9545C26.8751 113 26 112.125 26 111.045V110.454Z" fill="#3F3D56"/>
</g>
<g id="Icon">
<path id="Ellipse 6" d="M104.5 125.5C97.2871 125.5 89.8914 121.502 88.4836 113.82C87.4983 108.443 88.3948 102.835 91.134 98.6034C93.8488 94.4093 98.4111 91.5 104.965 91.5C110.53 91.5 114.761 93.2966 117.602 96.2552C120.444 99.214 121.993 103.435 122 108.467C121.755 112.072 120.901 114.294 119.586 115.798C118.259 117.316 116.345 118.242 113.674 119.005C112.483 119.346 111.794 120.092 111.307 120.886C111.077 121.262 110.882 121.664 110.706 122.027L110.701 122.037C110.517 122.416 110.349 122.763 110.15 123.098C109.767 123.746 109.291 124.314 108.497 124.738C107.687 125.171 106.459 125.5 104.5 125.5Z" stroke="#6C63FF" stroke-width="2"/>
<path id="Ellipse 3" d="M106.125 111.739C106.125 112.604 105.397 113.304 104.5 113.304C103.603 113.304 102.875 112.604 102.875 111.739C102.875 110.875 103.603 110.174 104.5 110.174C105.397 110.174 106.125 110.875 106.125 111.739Z" fill="#6C63FF"/>
<path id="Vector 6" d="M104.5 114.87L104.5 112.522" stroke="#6C63FF" stroke-width="2.5"/>
<path id="Vector 9" d="M104 118C104 118 109.542 118 110.271 118C111.001 118 111 117.524 111 117.048V107.5H110" stroke="#6C63FF"/>
<path id="Vector 11" d="M107.5 107.5H101.315" stroke="#6C63FF"/>
<path id="Vector 10" d="M104 118C104 118 99.25 118 98.6245 118C97.9989 118 98 117.547 98 117.093V107.5H98.83" stroke="#6C63FF"/>
<path id="Vector 12" d="M109 108C109 108 109 104.571 109 103.429C109 102.286 107.875 100 104.5 100C101.125 100 100 102.667 100 103.429V108" stroke="#6C63FF" stroke-width="1.2"/>
</g>
</g>
</svg>
