<svg width="100%" height="100%" viewBox="0 0 144 144" fill="none" xmlns="http://www.w3.org/2000/svg">
  <path d="M9 15.2308C9 13.5692 25.815 15.9231 41.0675 11.4C56.3199 6.87692 72.0562 0 72.0562 0V144C72.0562 144 42.63 126.692 30.0187 110.077C22.1367 99.6923 11.1019 78.9231 9 59.5385C9 38.0769 9 16.1348 9 15.2308Z" fill="#494765" />
  <path d="M135 15.2308C135 13.5692 118.185 15.9231 102.933 11.4C87.6801 6.87692 71.9438 0 71.9438 0V144C71.9438 144 101.37 126.692 113.981 110.077C121.863 99.6923 132.898 78.9231 135 59.5385C135 38.0769 135 16.1348 135 15.2308Z" fill="#413E68" />
  <path d="M16.4184 21.1035C16.4184 19.6138 31.2552 21.7241 44.7132 17.669C58.1713 13.6138 72.0562 7.44829 72.0562 7.44829V136.552C72.0562 136.552 46.0919 121.034 34.9644 106.138C28.0096 96.8276 18.273 78.2069 16.4184 60.8276C16.4184 41.5862 16.4184 21.914 16.4184 21.1035Z" fill="#3F3D56" />
  <path d="M127.638 21.0517C127.638 19.5621 112.801 21.6724 99.343 17.6172C85.885 13.5621 72 7.5 72 7.5V136.5C72 136.5 97.9643 120.983 109.092 106.086C116.047 96.7759 125.783 78.1552 127.638 60.7759C127.638 41.5345 127.638 21.8623 127.638 21.0517Z" fill="#37354F" />
  <path d="M46.4666 63.6207H98.1204V100.768C98.1204 103.53 95.8819 105.768 93.1204 105.768H51.4665C48.7051 105.768 46.4666 103.53 46.4666 100.768V63.6207Z" fill="#6C63FF" />
  <path d="M71.9438 94.6552V88.4483" stroke="#5D55DF" stroke-width="5" />
  <path d="M77.9385 84.569C77.9385 87.5685 75.2546 90 71.9438 90C68.6331 90 65.9492 87.5685 65.9492 84.569C65.9492 81.5695 68.6331 79.1379 71.9438 79.1379C75.2546 79.1379 77.9385 81.5695 77.9385 84.569Z" fill="#5D55DF" />
  <path d="M54.7009 63.7537V48.1773C54.7009 48.1773 55.1792 33.5172 72.3972 33.5172C89.6151 33.5172 89.1368 48.1773 89.1368 48.1773V63.7537" stroke="url(#paint0_linear)" stroke-width="5" />
  <path d="M75.745 84.9754C75.745 86.9995 74.032 88.6404 71.9188 88.6404C69.8056 88.6404 68.0926 86.9995 68.0926 84.9754C68.0926 82.9512 69.8056 81.3103 71.9188 81.3103C74.032 81.3103 75.745 82.9512 75.745 84.9754Z" fill="#3F3D56" />
  <path d="M71.9188 93.0739V87.1182" stroke="#3F3D56" stroke-width="4" />
  <defs>
    <linearGradient id="paint0_linear" x1="71.9195" y1="33.5172" x2="71.9195" y2="63.7537" gradientUnits="userSpaceOnUse">
      <stop stop-color="#98959F" />
      <stop offset="1" stop-color="#454347" />
    </linearGradient>
  </defs>
</svg>
