<svg width="120" height="120" viewBox="0 0 120 120" fill="none" xmlns="http://www.w3.org/2000/svg">
<path d="M9 14.2692C9 12.9308 22.6 14.8269 34.9362 11.1833C47.2725 7.53974 60 2 60 2V118C60 118 36.2 104.058 26 90.6731C19.625 82.3077 10.7 65.5769 9 49.9615C9 32.6731 9 14.9975 9 14.2692Z" fill="#7E5EC5"/>
<path d="M111 14.2692C111 12.9308 97.4 14.8269 85.0638 11.1833C72.7275 7.53974 60 2 60 2V118C60 118 83.8 104.058 94 90.6731C100.375 82.3077 109.3 65.5769 111 49.9615C111 32.6731 111 14.9975 111 14.2692Z" fill="#7553BE"/>
<path d="M15 19C15 17.8 27 19.5 37.8849 16.2333C48.7698 12.9667 60 8 60 8V112C60 112 39 99.5 30 87.5C24.375 80 16.5 65 15 51C15 35.5 15 19.6529 15 19Z" fill="#7150BB"/>
<path d="M105 19C105 17.8 93 19.5 82.1151 16.2333C71.2302 12.9667 60 8 60 8V112C60 112 81 99.5 90 87.5C95.625 80 103.5 65 105 51C105 35.5 105 19.6529 105 19Z" fill="#6B47BE"/>
<path d="M45.963 53.3572V40.8095C45.963 40.8095 46.3498 29 60.2757 29C74.2016 29 73.8148 40.8095 73.8148 40.8095V53.3572" stroke="#8484AB" stroke-width="9"/>
<path d="M39 53.3571H80.7778V82.3095C80.7778 85.071 78.5392 87.3095 75.7778 87.3095H44C41.2386 87.3095 39 85.071 39 82.3095V53.3571Z" fill="#8257E5"/>
<ellipse cx="59.8889" cy="69.5953" rx="3.09465" ry="2.95238" fill="#563C94"/>
<path d="M59.8889 76.9762V72.1786" stroke="#563C94" stroke-width="4"/>
</svg>
